<svg width="416" height="527" viewBox="0 0 416 527" fill="none" xmlns="http://www.w3.org/2000/svg">
<path d="M165.19 343.35C164.69 343.35 161.63 342.6 162.3 343.79C163.17 345.34 187.11 362.45 190.74 365.12C233.48 396.62 277.38 426.5 320.74 457.12L321.18 459.79C319.31 459.15 317.69 458.89 316.07 457.57C263.87 421.41 212.47 384.16 160.74 347.35C161.32 344.14 158.84 340.61 158.96 338.02C161.3 339.19 163.35 341.91 165.18 343.35H165.19Z" fill="#7D706B"/>
<path d="M165.19 343.35C177.47 352.97 204.08 371.82 218.3 382.02C252.65 406.64 287.89 430.06 322.08 454.91L320.75 457.13C277.39 426.51 233.49 396.63 190.75 365.13C187.12 362.45 163.17 345.35 162.31 343.8C161.64 342.61 164.7 343.35 165.2 343.36L165.19 343.35Z" fill="#BFBCC3"/>
<path d="M222.08 334.91C221.41 334.71 219.52 335.51 219.41 336.02C219.16 337.18 234.58 349.35 238.08 350.46C237.59 351.67 236.76 352.8 236.3 354.02C235.57 353.49 234.73 352.86 234.08 352.24C228.87 347.36 223.45 342.72 218.08 338.02C219.06 336.14 218.15 331.66 218.08 329.58C220.55 330.35 221.85 334.66 222.08 334.91Z" fill="#76656F"/>
<path d="M222.08 334.91C223.77 336.79 234.82 345.08 238.08 349.35V350.46C234.59 349.34 219.17 337.18 219.41 336.02C219.52 335.51 221.41 334.71 222.08 334.91Z" fill="#DFDADB"/>
<path d="M326.52 453.57C329.83 454.66 331.07 455.7 332.3 458.9C331.15 460.92 328.56 458.79 328.08 462.01C327.55 462.16 327.43 457.34 322.97 460.23C322.31 460.06 321.98 460.05 321.19 459.79L320.75 457.12L322.08 454.9C323.13 455.08 323.37 454.62 323.86 454.46C324.42 454.27 324.75 453.93 325.19 453.57C325.61 453.63 326.21 453.47 326.52 453.57Z" fill="#7A6D5B"/>
<path d="M324.74 464.24L323.85 460.68C324.13 460.75 328.25 459.54 326.96 463.57C326.41 465.29 324.86 464.17 324.74 464.24Z" fill="#9CC256"/>
<path d="M236.3 354.02C235.37 356.48 234.36 358.89 232.97 361.13C232.71 361.21 229.92 360 228.75 359.8C229.11 358.44 232 357.36 230.53 355.8C231.65 355.28 233.72 353.64 234.09 352.24C234.75 352.85 235.58 353.48 236.31 354.02H236.3Z" fill="#473856"/>
<path d="M174.96 359.8C174.63 357.09 170.65 354.26 169.18 358.02C166.06 352.34 164.42 352.05 159.4 348.24C159.47 348.19 159.64 347.17 160.73 347.35C212.46 384.17 263.86 421.41 316.06 457.57C317.68 458.89 319.3 459.15 321.17 459.79C321.96 460.06 322.29 460.06 322.95 460.23C323 460.24 322.6 460.38 323.84 460.67L324.73 464.23C322.3 465.48 322.71 467.46 324.73 468.67C326.96 474.94 333.92 479.48 340.29 476.67C356.17 469.65 341.57 438.71 328.29 449.78C328.12 451.57 331.03 447.75 336.51 450.89C338.4 451.97 339.66 454.47 340.73 456.22V458C339.94 455.96 339.12 456.82 338.95 456.67C334.77 452.75 333.59 448.96 326.51 453.56C326.19 453.46 325.6 453.62 325.18 453.56C328.37 450.97 328.44 443.45 338.29 446.89C341.84 448.13 346.1 453.48 347.4 456.89C353 471.5 342.1 483.88 330.29 477.56C322.56 473.42 319.93 458.87 320.73 465.34C322.11 476.46 335 486.46 345.4 478.9C358.45 469.41 347 439.15 329.4 442.9C325.66 443.7 319.35 451.37 323.84 454.46C323.35 454.63 323.11 455.08 322.06 454.9C287.88 430.05 252.63 406.63 218.28 382.01C204.06 371.82 177.45 352.97 165.17 343.34C163.33 341.9 161.29 339.18 158.95 338.01C158.99 337.14 159.47 336.97 159.39 336.23C159.54 336.35 160.33 336.1 160.5 336.23C160.71 336.39 160.33 338.43 163.39 339.34L220.5 380.23C217.38 369.87 205.14 362.14 212.94 358.01C214.02 357.44 231.14 353.81 230.94 352.01L216.27 339.34C216.81 337.39 218 338.11 218.05 338.01C223.42 342.71 228.84 347.35 234.05 352.23C233.69 353.63 231.61 355.26 230.49 355.79C230.34 355.86 229.72 355.79 227.38 356.68C224.09 357.93 219.38 357.81 224.27 358.9C225.72 359.22 227.26 359.54 228.71 359.79C229.88 359.99 232.67 361.2 232.93 361.12C234.32 358.88 235.34 356.47 236.26 354.01C236.72 352.79 237.54 351.66 238.04 350.45V349.34C234.78 345.06 223.73 336.77 222.04 334.9C221.81 334.64 220.51 330.34 218.04 329.57C217.93 326.21 221.68 331.37 218.93 326.01C220.63 329.31 237.5 346.72 239.15 346.9C240.65 347.06 240.23 342.52 250.04 344.23L255.6 346.45C257.05 345.45 257.81 343.53 258.93 342.45C265.78 335.87 267.77 330.88 272.71 330.23C272.52 328.76 273.28 327.82 274.27 326.9C274.95 326.26 289.8 318.2 290.71 318.01C296.63 316.79 305.77 326.44 310.27 330.01C312.56 324.78 325.75 330.29 333.83 331.34C339.66 338.49 343.09 347.18 346.27 355.78C350.31 354.84 353.44 361.04 356.49 362.45C361.68 364.84 383.48 365.72 385.16 369.78C388.31 377.4 377.06 378.27 374.72 379.78C372.44 381.25 349.28 409.33 342.5 414.22L342.06 426.22C365.66 429.05 379.36 458.27 369.17 479.11C363.45 490.81 344.53 497.44 332.95 492.67C320.95 487.72 311.51 470.71 312.73 457.78L296.95 446.45C294.26 454.95 278.07 457.17 279.17 445.56C275.67 449.55 262.55 468.16 260.5 469.56C255.89 472.7 246.62 471.82 245.61 467.56C244.88 464.47 246.94 422.99 246.05 413.34C239.61 410.62 238.22 405.88 234.72 402.9C231.86 400.47 182.51 365.03 174.94 359.79L174.96 359.8Z" fill="#351238"/>
<path d="M329.41 432.24C351.21 429.33 368.39 463.35 355.85 483.13C342.49 504.22 317.15 485.1 314.96 460.46C320.15 458.98 318.26 468.05 322.96 475.13C331.89 488.59 351.46 483.95 352.74 467.57C354.33 447.21 329.66 429.13 320.07 450.9C319.55 450.16 315.49 447.84 315.4 447.57C314.39 444.5 322.04 433.22 329.4 432.24H329.41Z" fill="#59596A"/>
<path d="M248.96 413.13C249.54 414.02 252.1 415.01 252.29 415.57C254.18 420.98 250.61 462.71 252.51 464.24C253.04 464.67 254.94 464.84 255.62 464.68C259.31 463.87 277.69 434.47 279.62 434.46C279.83 434.46 282.92 436.7 282.95 436.9C283.23 438.72 261.94 461.73 260.73 466.23C257.65 470.05 252.27 470.74 248.29 468.01L248.96 413.12V413.13Z" fill="#A2A4B6"/>
<path d="M370.52 463.35L362.52 463.79C361.71 453.48 354.53 440.32 345.85 434.46C339.3 430.03 331.33 429.96 339.18 428.68C355.07 426.1 370.46 445.41 370.51 463.35H370.52Z" fill="#59596A"/>
<path d="M325.19 453.57C324.75 453.93 324.41 454.27 323.86 454.46C319.36 451.38 325.68 443.7 329.42 442.9C347.02 439.15 358.47 469.41 345.42 478.9C335.02 486.46 322.13 476.47 320.75 465.34C319.95 458.87 322.58 473.43 330.31 477.56C342.12 483.88 353.02 471.5 347.42 456.89C346.11 453.48 341.86 448.13 338.31 446.89C328.45 443.44 328.39 450.96 325.2 453.56L325.19 453.57Z" fill="#414D70"/>
<path d="M370.52 463.35C370.55 473.9 365.3 486.81 354.08 488.91C360.57 482.74 363.22 472.66 362.52 463.8L370.52 463.36V463.35Z" fill="#47495D"/>
<path d="M340.3 476.68C345.66 470.35 344.79 462.87 340.74 456.24C339.67 454.49 338.41 451.99 336.52 450.91C331.04 447.77 328.13 451.58 328.3 449.8C341.58 438.73 356.18 469.67 340.3 476.69V476.68Z" fill="#9291A8"/>
<path d="M290.08 445.13C291.53 446.99 293.45 446.76 293.64 444.24C298.28 449.9 278.17 458.69 282.53 442.24C284.26 435.7 289.14 440.87 289.2 441.35C289.31 442.35 286.41 443.5 286.09 444.02C284.27 446.95 286.8 449.57 290.09 445.13H290.08Z" fill="#A2A4B6"/>
<path d="M298.74 429.13L299.19 436.24L290.52 429.8L298.74 429.13Z" fill="#7F788B"/>
<path d="M337.85 421.57C338.64 421.55 338.9 421.57 339.41 422.24C339.08 429.08 337.31 425.45 332.52 428.68C330.96 428.49 334.73 421.65 337.85 421.57Z" fill="#7F788B"/>
<path d="M340.08 414.46C341.56 416.53 336.44 419.81 336.08 419.79C335.93 419.79 335.37 417.04 335.41 416.9C335.86 415.58 339.12 415.51 340.08 414.46Z" fill="#6F7281"/>
<path d="M293.63 444.24C293.45 446.76 291.53 446.99 290.07 445.13C290.25 444.89 290.39 440.3 293.63 444.24Z" fill="#BFBCC3"/>
<path d="M298.96 397.13C296.5 403.82 294.96 414.62 290.29 419.35C285.29 420.53 255.25 401.46 247.85 399.79C241.02 394.98 234.24 390.06 227.18 385.57C224.3 383.54 223.6 380.07 222.07 377.13C247.77 383.45 273.16 391.11 298.96 397.13Z" fill="#BFBCC3"/>
<path d="M317.63 401.13C311.44 399.77 305.16 398.58 298.96 397.13C273.16 391.11 247.77 383.45 222.07 377.13C220.7 374.51 219.2 371.86 217.63 369.35C217.92 368.98 219.51 369.09 220.07 369.13C225.27 369.51 306.17 391.71 321.4 394.02L322.51 395.13C320.93 397.14 319.14 399.1 317.62 401.13H317.63Z" fill="#9291A8"/>
<path d="M358.96 394.02C339.76 398.58 322.82 410.4 308.29 423.35C307.46 423.63 302.63 426.08 302.29 426.02L301.62 425.35L325.4 395.35C326.76 396.02 328.93 395.78 330.29 395.35C343.41 391.21 356.53 385.65 369.62 382.24C365.95 386.06 362.47 390.07 358.95 394.02H358.96Z" fill="#7F788B"/>
<path d="M317.63 401.13C314.61 405.16 300.45 423.4 298.52 425.13C287.68 424.48 277.96 419.27 268.74 414.02C260.32 409.22 255.45 405.14 247.85 399.8C255.26 401.47 285.29 420.53 290.29 419.36C294.95 414.63 296.5 403.83 298.96 397.14C305.16 398.59 311.44 399.78 317.63 401.14V401.13Z" fill="#A2A4B6"/>
<path d="M328.74 389.13C328.58 389.53 328.08 390.47 327.85 390.91C327.78 391.03 326.69 391.64 326.96 393.58C312.86 388.94 218.85 368.57 213.85 365.58C212.67 364.87 212.78 363.92 212.74 363.8L213.41 361.13C251.74 370.91 290.21 380.17 328.74 389.13Z" fill="#BFBCC3"/>
<path d="M358.96 394.02C353.84 399.76 348.67 405.5 343.18 410.91C331.76 415.64 319.99 419.4 308.29 423.35C322.82 410.39 339.76 398.57 358.96 394.02Z" fill="#9291A8"/>
<path d="M328.74 389.13C290.21 380.17 251.73 370.91 213.41 361.13L212.74 363.8C210.6 358.01 217.8 359.73 220.96 360.24L326.29 385.57C331.22 387.98 328.84 388.86 328.73 389.13H328.74Z" fill="white"/>
<path d="M326.96 393.57C326.69 391.64 327.78 391.03 327.85 390.9C330.05 392.03 331.42 389.49 331.41 387.34L382.52 369.56C384.33 370.62 384.57 373.69 380.96 375.78C378.5 377.21 329.8 393.62 326.96 393.56V393.57Z" fill="#A2A4B6"/>
<path d="M382.52 369.57L331.41 387.35C331.41 387.18 329.01 386.61 331.19 385.13C339.8 383.4 376.62 369.42 379.19 369.13C380.33 369 381.47 368.96 382.52 369.57Z" fill="white"/>
<path d="M298.52 425.13C298.37 425.26 299.04 426.52 295.63 427.35C284.9 427.52 276.06 420.88 268.74 414.02C277.96 419.27 287.68 424.48 298.52 425.13Z" fill="#59596A"/>
<path d="M230.52 355.8C232 357.36 229.11 358.44 228.74 359.8C227.28 359.55 225.75 359.23 224.3 358.91L227.41 356.69C229.75 355.8 230.37 355.87 230.52 355.8Z" fill="#7F788B"/>
<path d="M365.85 366.91L373.63 368.47C372.42 369.4 366.13 368.57 365.85 366.91Z" fill="#DEE0DC"/>
<path d="M317.19 369.13C313.4 368.99 308.27 367.14 304.52 366.02L296.3 351.35C309.08 349.96 319.27 347.3 329.63 356.02C324.24 365.26 326.02 369.47 317.19 369.13Z" fill="#DCCEC6"/>
<path d="M294.96 372.68L293.18 375.35C286.04 374.1 279.29 372.22 272.29 370.46C272.35 369.89 272.19 369.23 272.29 368.68C272.32 370.51 274.94 367.62 276.29 365.79C279.25 361.77 279.9 356.67 283.4 353.12C284.54 352.82 285.48 352.43 286.73 352.68C289.98 358.86 292.93 365.79 294.95 372.68H294.96Z" fill="#DCCEC6"/>
<path d="M308.3 331.35C306.27 334.47 303.16 336.67 300.74 339.35C298.06 339.58 287.79 337.7 286.52 336.68C286.46 336.64 286.28 336.02 285.63 335.57C287.46 334.3 290.76 323.91 289.41 322.9L274.97 330.46C275.19 329.48 291.09 320.37 292.08 320.24C295.84 319.75 305.87 328.4 308.3 331.35Z" fill="#DCCEC6"/>
<path d="M251.41 346.91C252.05 352.33 254.96 357.29 254.52 362.91C254.33 363 252.89 364.94 250.96 365.13C248.98 364.71 235.71 362.31 235.4 361.35C238.03 357.81 239.02 347.69 243.62 346.46C244.1 346.33 251.03 346.76 251.4 346.9L251.41 346.91Z" fill="#DCCEC6"/>
<path d="M268.3 346.46C268.05 347.67 268.25 350.08 266.52 352.9C275.02 351.9 276.32 350.43 279.41 342.68C279.65 342.28 280.32 343.18 281.19 343.79C283.37 345.34 284.35 347.87 286.08 349.79C282.95 349.89 280.63 352.22 277.86 353.57C274.27 355.32 269.86 356.14 265.86 359.79C264.07 360 257.98 351.28 256.3 349.79C256.08 348.29 259.35 346.08 260.3 345.12C266.45 338.96 266.57 338.74 268.3 346.45V346.46Z" fill="#8B7976"/>
<path d="M317.19 369.13C316.98 370.23 318.64 370.55 317.86 371.35C317.25 371.98 304.5 378.58 301.86 377.57C301.01 377.24 294.61 361.81 294.53 360.9C294.43 359.81 295.77 351.85 296.31 351.34L304.53 366.01C308.27 367.13 313.41 368.98 317.2 369.12L317.19 369.13Z" fill="#76656F"/>
<path d="M333.63 335.35C335.17 336.92 335.77 339.08 336.74 340.68C334.15 337.72 334.9 348.7 331.41 352.68C325.97 350.14 321.85 347.66 316.74 344.68V343.79C321.41 345.98 323.61 339.31 326.74 336.68C331.5 337.67 329.99 333.07 333.63 335.35Z" fill="#DCCEC6"/>
<path d="M290.96 354.02C293.09 355.69 291.61 351.97 294.52 346.69C295.12 345.61 299.36 340.89 300.74 339.36C303.15 336.68 306.27 334.48 308.3 331.36C308.35 331.42 309.23 331.19 309.63 332.03C310.89 334.66 310.39 343.5 310.52 347.14C309.68 349.03 296.37 346.37 294.08 350.7C291.91 363.23 292.58 357.66 290.97 354.03L290.96 354.02Z" fill="#614F63"/>
<path d="M350.08 373.57C350.34 373.84 353.54 375.17 352.52 376.24C346.9 377.43 341.61 380.51 335.85 381.13C335.11 381.21 331.23 381.73 330.96 381.35C330.16 375.2 331.71 371.71 333.18 366.46C332.13 373.49 340.4 372.32 350.07 373.57H350.08Z" fill="#B19CA0"/>
<path d="M300.74 339.35C299.36 340.89 295.12 345.6 294.52 346.68C291.61 351.96 293.1 355.68 290.96 354.01C288.99 349.58 285.83 345.45 282.96 341.57L286.52 336.68C287.79 337.69 298.06 339.57 300.74 339.35Z" fill="#8B7976"/>
<path d="M335.41 359.35C335.45 359.48 335.4 359.65 335.41 359.79C335.6 361.76 333.75 364.46 333.19 366.46C331.72 371.7 330.17 375.19 330.97 381.35C331.24 381.73 335.12 381.21 335.86 381.13C334.49 382.1 329.59 383.86 328.3 383.8C328.59 380.94 325.34 374.64 323.41 372.24C327.04 368.13 328.66 362.89 330.97 358.02C332.47 356.97 334.92 357.65 335.41 359.35Z" fill="#89767D"/>
<path d="M281.19 343.8C280.32 343.19 279.65 342.29 279.41 342.69C276.32 350.45 275.02 351.91 266.52 352.91C268.24 350.08 268.04 347.68 268.3 346.47C269.12 342.54 270.88 338.03 270.52 333.58L271.19 333.14L281.19 343.81V343.8Z" fill="#DCCEC6"/>
<path d="M357.19 365.13C359.93 365.97 361.11 369.12 360.75 371.8C357.84 372.46 355.51 374.23 352.75 372.69C352.86 371.02 352.5 363.38 350.08 363.8C346.6 364.41 352.51 373.55 338.97 360.02C348.8 354.22 350.11 361.77 357.19 365.13Z" fill="#928491"/>
<path d="M286.52 336.68L282.96 341.57C279.51 336.9 274.25 333.68 274.96 330.46L289.4 322.9C290.75 323.9 287.45 334.3 285.62 335.57C286.27 336.03 286.45 336.64 286.51 336.68H286.52Z" fill="#B19CA0"/>
<path d="M323.41 372.24C325.34 374.63 328.59 380.93 328.3 383.8C327.84 383.78 326.68 382.95 326.3 382.47C320.54 383.52 314.95 380.23 309.19 379.58C318.07 369.93 322.26 372.66 323.41 372.25V372.24Z" fill="#7A6D5B"/>
<path d="M333.63 335.35C329.99 333.07 331.5 337.67 326.74 336.68C323.61 339.31 321.41 345.98 316.74 343.79C317.37 339.19 316.51 334.03 314.07 330.01C314.98 329.8 328.79 333.29 331.63 333.12C332.44 333.71 332.96 334.66 333.63 335.34V335.35Z" fill="#DCCEC6"/>
<path d="M350.08 373.57C340.41 372.32 332.14 373.49 333.19 366.46C333.75 364.46 335.61 361.77 335.41 359.79C340.46 364.19 345.39 368.79 350.08 373.57Z" fill="#BFBCC3"/>
<path d="M336.74 340.68C338.25 343.17 344.22 353.28 342.96 355.79C339.25 354.65 337.35 356.2 333.63 354.46C333.48 354.39 334.11 353.94 331.41 352.68C334.91 348.7 334.15 337.72 336.74 340.68Z" fill="#76656F"/>
<path d="M274.08 357.57C275.65 361.1 272.72 366.28 272.3 368.68C272.2 369.23 272.36 369.89 272.3 370.46C270.92 370.11 269.27 369.94 267.86 369.57C265.98 367.57 261.92 367.89 262.08 366.01C264.17 362.8 270.56 359.38 274.08 357.57Z" fill="#B19CA0"/>
<path d="M261.63 359.35C259.48 362.63 255.23 362.58 254.52 362.91C254.96 357.29 252.05 352.33 251.41 346.91C252.16 347.2 260.55 357.88 261.63 359.35Z" fill="#76656F"/>
<path d="M272.3 368.68C272.72 366.28 275.65 361.09 274.08 357.57C275.35 356.92 282.91 353.26 283.41 353.13C279.91 356.67 279.26 361.77 276.3 365.8C274.95 367.63 272.33 370.52 272.3 368.69V368.68Z" fill="#DCCEC6"/>
<path d="M316.74 343.8V344.69C315.14 343.76 314.29 344.29 312.74 343.58C313.7 340.11 309.78 331.01 314.07 330.02C316.51 334.04 317.37 339.19 316.74 343.8Z" fill="#8B7976"/>
<path d="M250.96 365.13C252.89 364.93 254.33 363 254.52 362.91C255.23 362.58 259.48 362.64 261.63 359.35C263 361.22 264.22 363.09 260.96 365.57C258.22 367.65 254.4 366.66 251.18 366.01C250.8 365.93 251 365.13 250.96 365.12V365.13Z" fill="#614F63"/>
<path d="M268.3 346.46C266.57 338.74 266.45 338.97 260.3 345.13L270.52 333.57C270.88 338.02 269.12 342.53 268.3 346.46Z" fill="#C1B3B6"/>
<path d="M342.96 355.8L335.4 359.36C334.9 357.65 332.46 356.97 330.96 358.03C331.64 356.59 331.66 355.12 333.63 354.47C337.35 356.22 339.25 354.66 342.96 355.8Z" fill="#351238"/>
<path d="M360.74 371.8C361.1 369.12 359.92 365.97 357.18 365.13C358.69 361.39 366 369.66 366.07 370.24C366.33 372.45 361.93 371.53 360.74 371.8Z" fill="#473856"/>
<path d="M352.74 372.68C348.04 370.06 349.02 368.09 350.07 363.79C352.49 363.37 352.85 371.01 352.74 372.68Z" fill="#76656F"/>
<path d="M267.85 369.57C261.51 367.91 259.88 369.36 262.07 366.01C261.91 367.88 265.97 367.56 267.85 369.57Z" fill="#614F63"/>
<path d="M293.19 375.35L294.97 372.68C295.02 372.85 296.6 374.33 296.3 376.01C294.26 376.88 293.35 375.37 293.19 375.34V375.35Z" fill="#614F63"/>
<path d="M227.41 356.68L224.3 358.9C219.41 357.81 224.12 357.93 227.41 356.68Z" fill="white"/>
<path d="M368.52 369.13C368.86 369.16 370.04 369.67 370.08 369.8C370.28 370.5 367.72 370.45 368.52 369.13Z" fill="#AFB3AD"/>
<path d="M340.3 476.68C333.94 479.49 326.98 474.95 324.74 468.68C322.38 462.06 325.39 468.62 329.41 469.57C336.83 471.32 341.47 465.07 340.74 458.01V456.23C344.79 462.86 345.65 470.35 340.3 476.67V476.68Z" fill="#696C99"/>
<path d="M340.74 458.02C341.46 465.07 336.82 471.33 329.41 469.58C325.4 468.63 322.38 462.07 324.74 468.69C322.72 467.47 322.31 465.5 324.74 464.25C324.86 464.19 326.41 465.3 326.96 463.58C328.25 459.55 324.13 460.76 323.85 460.69C322.61 460.4 323.01 460.26 322.96 460.25C327.42 457.36 327.54 462.18 328.07 462.03C328.55 458.81 331.14 460.94 332.29 458.92C332.3 458.95 332.57 458.74 332.73 459.36C334.82 467.5 328.89 468.01 329.17 468.47C335.38 469.74 341.43 462.89 338.5 457.14C338.53 457.12 338.4 456.65 338.94 456.7C339.1 456.85 339.93 456 340.72 458.03L340.74 458.02Z" fill="#351238"/>
<path d="M338.96 456.68C338.42 456.63 338.54 457.11 338.52 457.12C336.86 458.22 334.57 458.54 332.74 459.34C332.58 458.72 332.31 458.92 332.3 458.9C331.07 455.7 329.83 454.65 326.52 453.57C333.6 448.97 334.78 452.77 338.96 456.68Z" fill="white"/>
<path d="M332.74 459.35C334.56 458.55 336.85 458.23 338.52 457.13C341.45 462.88 335.39 469.74 329.19 468.46C328.91 468 334.83 467.49 332.75 459.35H332.74Z" fill="#BFBCC3"/>
<path d="M116.74 267.8C116.67 267.91 116.81 268.14 116.74 268.24C102.82 263.38 92.8399 251.34 79.6299 245.13C71.3399 231.69 58.6599 221.91 47.4099 211.13C54.8099 211.28 74.9799 220.64 80.0799 224.69C85.5499 229.04 109.77 259.53 116.75 267.8H116.74Z" fill="#BAD6EC"/>
<path d="M78.5199 211.35C78.4599 211.5 76.8999 213.3 77.4099 213.57C79.7099 213.87 81.7899 212.97 83.8499 212.24C83.8799 212.6 83.7999 213.04 83.8499 213.13L76.2899 216.46C93.9899 227.19 109.82 241.4 120.73 259.13C98.6199 233.72 71.9699 211.14 37.3999 206.46C40.0199 225.47 51.9899 255.64 66.0699 268.68C65.7699 269.67 64.6199 266.98 64.2899 269.57C45.3799 252.24 36.8099 227.11 31.3999 202.68C45.4299 201.25 61.5599 209.14 74.2899 214.9C76.6099 211.05 79.3499 205.59 79.8499 201.12C79.8799 200.84 80.4899 200.45 80.2899 198.68C80.2799 198.57 79.7999 198.1 79.3999 196.68C82.4599 197.56 80.6399 194.61 80.7299 194.24C81.1299 192.69 82.6499 189.88 82.9499 188.46C83.2399 187.09 82.4199 178.56 86.9499 175.79C84.7499 187.81 83.1499 200.13 78.5099 211.35H78.5199Z" fill="#355A8B"/>
<path d="M46.2999 232.68C66.8899 240.01 86.5699 247.19 102.97 262.24C87.6499 259.46 72.5199 256.37 56.9699 254.91C54.8999 252.94 45.0299 233.53 46.2999 232.69V232.68Z" fill="url(#paint0_linear_65_2333)"/>
<path d="M115.85 269.13C114.07 272.14 111.64 277.72 110.07 281.13C95.7 281.94 86.74 281.72 74.51 273.35C78.44 271.39 103.26 263.2 104.95 263.35C106.44 263.48 113.13 268.78 115.84 269.13H115.85Z" fill="url(#paint1_linear_65_2333)"/>
<path d="M39.19 208.68C43.56 205.35 78.78 241.61 77.63 244.01L45.41 231.34C44.11 230.09 38.25 209.39 39.19 208.67V208.68Z" fill="#BAD6EC"/>
<path d="M58.2999 255.8C73.0899 257.4 87.5899 259.83 102.08 263.13L72.9699 272.69C66.2799 268.89 62.0899 262.44 57.6399 256.47L58.3099 255.8H58.2999Z" fill="#B2D8B8"/>
<path d="M119.41 263.8C118.77 264.71 117.67 266.15 117.19 266.91C105.97 253.33 95.09 239.49 82.97 226.69C91.96 232.84 100.66 240.71 107.86 248.91C112.02 253.64 115.39 258.97 119.42 263.8H119.41Z" fill="#BAD6EC"/>
<path d="M66.0798 268.68C76.4498 278.29 90.8698 282.39 104.52 284.68C88.0998 285.24 76.1998 280.47 64.2998 269.57C64.6298 266.98 65.7798 269.67 66.0798 268.68Z" fill="#3E7DA1"/>
<path d="M109.63 281.57C109.3 282.31 109.05 283.07 108.74 283.79L97.6299 282.23L109.63 281.56V281.57Z" fill="#8CCFD6"/>
<path d="M107.41 286.91C106.86 288.33 106.55 288.17 106.52 288.24C85.5599 287.22 46.2799 293.85 34.7399 313.13C46.8099 317.28 65.0499 319.87 77.6299 318.91C77.4999 319.49 78.5999 319.32 78.5199 319.58C78.1499 320.77 56.4699 320.42 53.8499 320.25C53.6699 320.24 53.1499 319.38 52.9599 319.36C51.7599 319.27 50.8099 320 48.9599 319.8C44.5399 319.33 40.2299 317.59 35.8499 317.13C29.0199 314.33 27.9199 314.63 31.4099 309.35C43.8599 290.49 86.4799 285.98 107.41 286.91Z" fill="#4F9BB2"/>
<path d="M107.41 310.91C106.73 310.98 106.57 311.76 106.52 311.8C106.5 311.82 106.66 311.93 106.08 312.24C106.04 312.26 106.01 311.47 105.41 311.8C100.86 314.29 96.2199 317.03 91.1899 318.47C77.4399 322.39 49.0099 322.53 35.8599 317.14C40.2399 317.6 44.5599 319.33 48.9699 319.81C50.8199 320.01 51.7699 319.28 52.9699 319.37C53.1599 319.38 53.6699 320.25 53.8599 320.26C56.4699 320.43 78.1599 320.78 78.5299 319.59C78.6099 319.33 77.5099 319.5 77.6399 318.92C82.3799 318.56 87.3099 317.16 91.8599 315.81C96.9399 314.31 102.01 312.4 106.53 309.59C106.57 309.66 107.08 310.38 107.42 310.92L107.41 310.91Z" fill="#248B95"/>
<path d="M103.41 298.91C103.3 300.67 103.41 302.53 103.85 304.24C100.55 307.14 94.22 313.76 90.52 315.35C82.73 318.7 83.35 316.44 88.3 307.13C92 300.17 95.6 293.02 103.41 298.91Z" fill="#8CCFD6"/>
<path d="M106.52 309.57C102 312.38 96.94 314.29 91.85 315.79L90.52 315.35C94.22 313.76 100.55 307.14 103.85 304.24C103.99 304.8 105.92 308.48 106.52 309.57Z" fill="#BDDFD8"/>
<path d="M106.52 288.24C105.37 291.43 103.63 295.52 103.41 298.91C95.6 293.02 91.99 300.17 88.3 307.13C83.35 316.45 82.73 318.7 90.52 315.35L91.85 315.79C87.3 317.14 82.37 318.54 77.63 318.9C65.05 319.86 46.81 317.27 34.74 313.12C46.27 293.84 85.55 287.21 106.52 288.23V288.24Z" fill="#ECF7F6"/>
<path d="M85.8498 298.91L67.6298 318.02L49.1898 316.02C47.4298 313.84 83.0498 298.64 85.8598 298.91H85.8498Z" fill="#8CCFD6"/>
<path d="M77.8498 292.24C86.1798 291.64 94.4198 293.21 102.74 293.13V294.02L75.6298 301.13C69.9098 301.65 61.2798 298.93 52.2998 300.02C60.6398 296.63 68.7398 292.9 77.8598 292.24H77.8498Z" fill="#A9D4DC"/>
<path d="M55.1899 300.68C61.0599 300.17 66.6699 301.59 72.5199 301.57V302.46C69.0399 303.26 38.2099 315.07 37.1899 311.57C41.9999 305.42 47.2799 301.36 55.1899 300.68Z" fill="#C4E0E8"/>
<path d="M91.63 297.57C92.74 297.64 92.79 297.38 92.74 298.68C92.7 299.73 83.29 314.09 82.74 317.12C78.14 318.11 73.46 318.32 68.74 317.79C74.07 314.35 85.36 297.17 91.63 297.57Z" fill="#8CCFD6"/>
<path d="M63.63 306.02C67.45 305.21 57.92 309.35 53.85 311.35C47.19 314.63 49.79 317.63 38.52 313.35C46.14 312.85 60.05 306.77 63.63 306.02Z" fill="#8CCFD6"/>
<path d="M136.3 249.13C134.05 245.9 132.31 241.49 130.52 238.46L147.41 242.68C146.08 250.94 140.15 248.16 136.3 249.12V249.13Z" fill="white"/>
<path d="M249.19 124.68L248.97 125.57L270.53 130.68C252.33 134 234.73 137.66 216.09 138.9C202.75 139.79 142.83 138.96 139.2 140.23C138.85 140.35 138.98 140.83 138.98 141.12C129.06 140.76 122.55 143.35 125.65 135.34C126.29 133.7 128.91 132.86 129.21 130.9C135.2 129.85 141.28 129.19 147.21 127.79C173.09 127.06 227.18 122.27 249.21 124.68H249.19Z" fill="#FCCF22"/>
<path d="M278.08 137.57C274.53 137.09 272.38 138.41 271.41 138.46C271.26 138.46 271.26 137.25 268.52 137.57C265.65 137.91 255.35 140.96 248.74 142.01C234.46 144.28 219.91 146.28 205.41 146.9C172.36 148.31 140.94 144.56 107.41 147.34C98.4999 148.08 70.8999 150.95 64.2999 154.9C60.2599 154.33 54.3599 158.9 55.4099 163.34C49.5399 156.99 54.9899 153.52 60.7399 150.01C82.6099 146.42 103.64 138.54 125.63 135.34C122.53 143.35 129.05 140.76 138.96 141.12C175.07 142.43 211.97 144.39 247.63 137.56C256.7 135.82 265.37 131.57 274.74 131.78L274.07 130.45C277.85 132.05 279.54 132.68 278.07 137.56L278.08 137.57Z" fill="#F8AF1B"/>
<path d="M248.74 142.02L248.3 144.24C241.28 145.04 234.42 147.03 227.41 147.8C218.7 148.75 202.34 149.39 193.19 149.58C186.99 149.7 180.7 149.63 174.52 149.58C173.65 149.58 172.69 149.59 171.85 149.58C166.99 149.52 162.07 149.16 157.18 149.14C154.89 149.14 154.33 148.31 150.96 148.7C150.4 148.76 149.61 148.57 149.18 148.7C148.57 148.88 146.5 149.44 146.51 150.26C150.73 154.23 154.95 158.34 159.4 162.04C158.03 162.56 157.56 161.86 155.84 161.6L140.95 147.82C139.53 147.59 139.48 148.72 139.39 148.71C138.66 148.66 137.9 148.72 137.17 148.71C129.72 148.59 121.95 148.31 114.5 148.71C113.77 148.75 113.01 148.68 112.28 148.71C110.65 148.84 109.03 149.01 107.39 149.15V147.37C140.92 144.59 172.34 148.34 205.39 146.93C219.9 146.31 234.44 144.31 248.72 142.04L248.74 142.02Z" fill="#662741"/>
<path d="M274.08 130.46L274.75 131.79C265.38 131.58 256.71 135.83 247.64 137.57C211.99 144.4 175.08 142.43 138.97 141.13C138.97 140.84 138.84 140.36 139.19 140.24C142.82 138.97 202.74 139.8 216.08 138.91C234.72 137.67 252.32 134.01 270.52 130.69L248.96 125.58L249.18 124.69C253.41 125.15 270.56 128.98 274.07 130.47L274.08 130.46Z" fill="#FCF8C5"/>
<path d="M125.63 135.35C103.64 138.55 82.61 146.43 60.74 150.02C73.28 142.36 113.23 133.69 129.18 130.91C128.89 132.87 126.26 133.71 125.62 135.35H125.63Z" fill="#FCF282"/>
<path d="M64.7399 168.24C62.8399 167.06 61.5199 163.77 61.1799 161.57C73.1599 152 67.6499 158.25 71.8499 169.79C71.4599 170.44 65.5499 168.74 64.7399 168.23V168.24Z" fill="#AA2178"/>
<path d="M64.3 154.91C61.29 156.71 60.72 158.5 61.1899 161.58C61.53 163.78 62.84 167.07 64.75 168.25C61.01 167.85 57.8499 165.99 55.4199 163.36C54.3699 158.92 60.2699 154.35 64.3099 154.92L64.3 154.91Z" fill="#F49E23"/>
<path d="M278.08 137.57C277.08 140.92 273.61 142.2 271.19 144.24L271.41 138.46C272.38 138.42 274.53 137.09 278.08 137.57Z" fill="#F0912A"/>
<path d="M260.3 153.13C258.86 151.26 258.18 149 257.19 146.91C257.11 146.74 256.77 144.66 256.08 143.35C253.46 143.33 250.88 143.94 248.3 144.24L248.74 142.02C255.35 140.97 265.65 137.91 268.52 137.58C271.26 137.26 271.26 138.48 271.41 138.47L271.19 144.25C273.61 142.21 277.07 140.93 278.08 137.58C279.55 132.7 277.86 132.07 274.08 130.47C270.57 128.99 253.42 125.16 249.19 124.69C227.16 122.28 173.07 127.07 147.19 127.8C141.26 129.2 135.18 129.87 129.19 130.91C113.24 133.69 73.2899 142.36 60.7499 150.02C54.9999 153.53 49.5499 157.01 55.4199 163.35C57.8499 165.98 61.0099 167.83 64.7499 168.24C65.5599 168.74 71.4699 170.45 71.8599 169.8C67.6599 158.26 73.1799 152.01 61.1899 161.58C60.7199 158.5 61.2999 156.71 64.2999 154.91C70.8999 150.96 98.4999 148.09 107.41 147.35V149.13C99.7999 149.78 92.9799 151.42 85.6299 153.13C83.9999 153.51 82.3799 153.6 80.7399 154.02C72.3899 156.14 70.4899 153.86 74.9599 172.91C74.4799 178 75.8999 187.48 75.8499 188.24C75.8499 188.35 75.1999 190.11 74.5199 189.13C73.2999 184.4 72.5199 179.58 72.2999 174.69L71.1899 173.58C47.6899 170.97 39.2599 155.19 63.8599 144.02C57.2899 99.9999 82.7899 57.5999 124.53 42.9099C128.38 40.3399 128.31 33.3199 147.2 30.0199C168.38 26.3299 193.22 26.8899 208.98 43.3499C240.21 55.0399 256.14 73.1299 266.98 104.02C267.84 106.48 272.39 111 271.42 123.58C295.6 135.53 275.34 147.15 260.31 153.14L260.3 153.13Z" fill="#8A1E2B"/>
<path d="M166.08 33.5701C179.92 33.3201 189.49 35.7101 200.52 44.2401C205.15 47.8201 216.71 60.2401 215.19 61.1301C203.78 49.8201 178.82 64.0201 180.75 70.2401C182.45 75.7301 217.05 75.3301 222.75 73.1301C230.94 87.8501 235.15 104.85 237.19 121.57C232.96 122.99 193.68 123.48 185.19 123.79C183.07 119.73 185.55 113.99 183.41 114.01C184.38 92.2501 175.2 59.2001 162.52 41.3401C157.04 33.6301 150.81 33.8301 166.08 33.5601V33.5701Z" fill="#FCCF22"/>
<path d="M218.96 51.7999C233.57 60.5999 245.06 74.4499 255.85 87.3599C258.37 91.9499 260.66 96.4499 262.52 101.36C262.43 103.15 257.65 98.0299 257.63 106.92C255.45 111.79 258.27 122.94 249.41 119.36C246.28 118.1 238.81 102.22 237.19 98.4699C230.19 82.2499 225.92 64.0699 214.08 49.7999L214.3 49.1299C215.95 49.8899 217.42 50.8699 218.97 51.7999H218.96Z" fill="#FADE3B"/>
<path d="M145.63 34.0197C166.87 32.6897 179.92 84.6997 182.07 101.8C182.95 108.75 183.07 121.59 183.4 114.02C185.54 114 183.05 119.74 185.18 123.8C182.55 123.9 180.06 124.79 177.4 124.69C174.91 123.7 174.24 103.84 173.62 100.02C171 83.9097 165.57 64.8597 155.84 51.5797C147.61 40.3397 144.14 40.0497 130.06 41.7997C134.94 36.0597 138.74 35.4797 145.62 34.0197H145.63Z" fill="#F49E23"/>
<path d="M117.19 105.13C120.51 106.79 120.67 122.97 124.52 126.02C139.2 122.01 157.54 125.5 162.96 107.58C166.19 96.9 157.63 68.96 151.4 59.14C147.83 53.51 142.51 49.09 138.51 43.81C144.93 43.68 146.59 45.06 150.95 49.81C166.46 66.71 172.54 101.11 173.62 123.59C155.61 124.88 137.76 126.95 120.06 130.48C118.76 129.86 116.74 108.13 117.17 105.15L117.19 105.13Z" fill="#F49E23"/>
<path d="M237.19 121.57C235.15 104.85 230.93 87.8397 222.75 73.1297C217.05 75.3397 182.45 75.7297 180.75 70.2397C178.83 64.0197 203.78 49.8197 215.19 61.1297C216.71 60.2397 205.15 47.8197 200.52 44.2397C189.49 35.7097 179.92 33.3297 166.08 33.5697V31.7897C182.29 31.4997 190.85 33.0197 203.64 43.3497C225.49 60.9897 236.07 94.2797 238.97 121.35C238.73 121.84 237.65 121.42 237.19 121.57Z" fill="#FDFBE4"/>
<path d="M114.96 131.8C114.37 132.04 103.94 134.25 102.52 134.47C95.71 127.58 87.67 108.02 84.74 121.14C85.26 111.17 92.64 109.13 104.3 107.81C116.94 109.06 114.35 122.54 114.97 131.81L114.96 131.8Z" fill="#FCCF22"/>
<path d="M102.52 134.46C100.16 134.82 95.9698 135.9 93.8498 135.35C90.7198 134.54 87.5098 126.72 86.9598 128.02C87.6898 129.3 88.0998 130.78 88.2898 132.24C88.5098 133.92 87.8998 136.54 89.1798 137.57C85.8798 138.88 77.3498 138.63 72.5098 142.46L71.8398 141.79C72.7098 135.13 70.3998 124.63 74.0598 119.35C74.8598 125.01 75.0598 122.89 77.1698 122.91C81.1398 122.94 83.4098 123.34 84.2798 123.35C84.3198 123.35 84.6598 124.54 85.1698 123.35C86.3298 123.11 84.6999 121.66 84.7299 121.13C87.6599 108.01 95.6999 127.58 102.51 134.46H102.52Z" fill="#F49E23"/>
<path d="M166.08 31.7998V33.5798C150.82 33.8498 157.05 33.6398 162.52 41.3598C175.2 59.2198 184.37 92.2698 183.41 114.03C183.07 121.6 182.95 108.76 182.08 101.81C179.93 84.7098 166.87 32.7098 145.64 34.0298C152.34 32.6098 159.22 31.9298 166.08 31.8098V31.7998Z" fill="#FDFBE4"/>
<path d="M257.63 106.91C257.63 109.2 260.03 123.55 258.3 124.24L241.86 122.02L237.19 98.46C238.81 102.21 246.29 118.09 249.41 119.35C258.27 122.93 255.45 111.78 257.63 106.91Z" fill="#F49E23"/>
<path d="M266.52 110.02C268.2 114.87 268.57 121.38 268.08 126.46C259.35 125 261.65 123.98 260.75 115.79C261.43 112.07 262.18 109.43 266.53 110.01L266.52 110.02Z" fill="#F8AF1B"/>
<path d="M255.85 87.35C245.06 74.45 233.57 60.59 218.96 51.79C234.89 59.08 247.5 72.14 255.85 87.35Z" fill="#FCF8C5"/>
<path d="M114.96 131.8C114.34 122.53 116.93 109.05 104.29 107.8C119.24 106.1 114.77 108.35 117.18 130.69C116.94 131.25 115.74 131.48 114.96 131.8Z" fill="#FCF282"/>
<path d="M268.52 140.68C271.54 141.25 260.59 151.11 259.41 148.46C259.6 139.9 260.36 143.38 268.52 140.68Z" fill="#AA2178"/>
<path d="M85.1898 123.35C84.6798 124.54 84.3498 123.35 84.2998 123.35C82.2898 120.07 77.1098 119.6 77.1898 122.91C75.0698 122.89 74.8798 125.02 74.0798 119.35C78.1998 113.4 82.5298 118.98 85.1898 123.35Z" fill="#FCF8C5"/>
<path d="M266.52 110.02C262.17 109.43 261.42 112.08 260.74 115.8C260.58 114.37 259.6 104.58 260.07 104.24C262.97 102.18 265.82 108.02 266.51 110.02H266.52Z" fill="#FADE3B"/>
<path d="M89.1898 137.57C87.9098 136.54 88.5198 133.92 88.2998 132.24C90.0798 136.39 92.2698 136.35 89.1898 137.57Z" fill="#FCCF22"/>
<path d="M138.52 43.8C142.51 49.08 147.84 53.5 151.41 59.13C157.64 68.95 166.19 96.9 162.97 107.57C157.55 125.49 139.21 122.01 124.53 126.01C120.68 122.97 120.52 106.78 117.2 105.12C81.2699 104.98 84.6199 115.39 82.7599 115.79C64.1799 105.65 70.9499 143.8 68.5399 143.79C60.1299 105.93 82.4099 65.92 116.98 50.01C122.83 47.32 132.18 43.91 138.54 43.79L138.52 43.8Z" fill="#FCCF22"/>
<path d="M120.08 54.91C127.35 54.15 130.78 64.86 130.08 70.69C127.63 91.01 93.49 97.73 96.75 74.25C98.18 63.96 114.43 55.51 120.08 54.92V54.91Z" fill="url(#paint2_linear_65_2333)"/>
<path d="M90.3 76.6798C96.22 75.1698 96.35 83.8598 92.08 85.5698C84.2 88.7298 86.85 77.5598 90.3 76.6798Z" fill="#FDFBE4"/>
<path d="M145.41 102.46C149.96 102.05 148.98 107.03 146.3 108.68C140.5 112.25 139.92 102.95 145.41 102.46Z" fill="#FCF8C5"/>
<path d="M131.63 109.13C138.45 107.41 134.43 118 130.74 115.35C129.47 114.44 128.82 109.84 131.63 109.13Z" fill="#FDFBE4"/>
<path d="M84.2999 123.35C83.4199 123.35 81.1499 122.94 77.1899 122.91C77.1099 119.6 82.2999 120.08 84.2999 123.35Z" fill="#FCCF22"/>
<path d="M109.19 162.91C102.63 186.55 103.98 219.03 121.63 237.58C123.77 239.82 127.04 243.1 129.85 244.25C128.93 241.23 126.35 238.64 125.18 235.81C125.12 235.66 125.05 234.69 124.29 232.7H126.96C127.5 232.65 127.38 233.12 127.4 233.14C128.18 237.37 130.35 238.2 130.51 238.47C132.3 241.5 134.04 245.91 136.29 249.14C135.69 249.29 134.7 249.76 134.07 250.03C130.69 246.98 126.74 244.54 122.96 242.03C118.82 237.96 114.22 234.57 110.07 230.47C111.75 229.53 108.38 225.66 106.96 221.36C103.16 209.83 102.63 198.06 103.4 186.03C103.97 177.29 105.25 168.16 107.84 159.81C110.61 160.94 108.16 160.63 109.17 162.92L109.19 162.91Z" fill="#245E77"/>
<path d="M243.85 186.91C246.19 201.35 246.68 214.72 243.85 229.13H241.63C241.77 228.58 241.85 228.13 241.19 227.8C239.48 226.95 239.35 230.33 238.08 230.91C242.36 221.06 243.15 210.85 242.52 200.24C242.5 199.98 244.02 196.42 241.63 196.46C241.95 194.55 241.38 192.72 241.19 190.9C242.98 191.19 241.05 187.21 243.86 186.9L243.85 186.91Z" fill="#324B6B"/>
<path d="M241.19 227.8C233.16 242.02 227.89 250.86 210.97 254.69C215.79 249.8 221.18 244.95 223.86 238.47C225.07 237.91 225.42 236.78 226.97 237.14C225.55 241.17 224.35 244.15 221.64 247.58C222.6 248.39 226.28 244.41 226.97 243.8C230.01 241.15 232.64 238.64 234.53 234.91C235.1 237.58 237.56 232.12 238.09 230.91C239.36 230.33 239.49 226.95 241.2 227.8H241.19Z" fill="#254C67"/>
<path d="M257.19 146.91C258.19 149 258.86 151.26 260.3 153.13C261.68 163.07 262.65 173.22 264.3 183.13C265 187.37 267.57 195.15 267.86 197.57C267 198.22 266.18 197.95 266.08 198.01C265.68 197.52 265.77 197.08 265.64 196.68C264.42 192.92 263.72 190.99 262.97 186.9C262.35 183.53 262.32 180.69 262.08 179.34C261.64 176.82 261.21 174.3 260.75 171.78C259.17 163.15 257.49 154.52 255.42 146C255.58 145.98 255.21 143.59 257.2 146.89L257.19 146.91Z" fill="#4E4475"/>
<path d="M256.74 207.8C253.63 221.85 250.03 235.46 235.63 242.02C234.99 241.72 241.37 230.14 241.63 229.13H243.85C243.7 229.91 242.53 232.28 242.52 232.46C242.28 237.08 248.3 228.06 250.52 223.35C251.84 220.55 253.89 214.41 254.52 211.35C254.75 210.23 254.81 209.32 254.96 208.24L256.74 207.8Z" fill="#245E77"/>
<path d="M254.08 173.13C254.93 178.47 255.71 183.82 256.75 189.13C257.66 193.8 255.75 196.23 261.19 198.46C260.42 199.05 260.24 199.68 259.86 199.79C259.12 200 258.46 198.85 258.08 199.57C257.89 199.94 257.04 206.45 256.75 207.79L254.97 208.23C256.65 196.64 254.97 184.43 253.19 172.9C253.98 172.21 254.04 173.1 254.08 173.12V173.13Z" fill="#4E4475"/>
<path d="M259.85 199.8C260.23 199.69 260.41 199.05 261.18 198.47C266.56 200.68 265.81 198.2 266.07 198.03C266.17 197.96 266.99 198.24 267.85 197.59C267.99 198.79 268.47 199.83 268.29 200.48C255.88 210.85 262.21 205.37 259.85 199.81V199.8Z" fill="#355A8B"/>
<path d="M112.3 148.68C111.21 152.54 109.07 155.9 107.86 159.79C103.79 158.13 98.28 160.68 94.53 162.01C92.76 162.64 91.02 163.29 89.2 163.79L82.98 170.9C84.04 165.03 85.07 159.07 85.65 153.12C93 151.41 99.82 149.77 107.43 149.12C109.06 148.98 110.69 148.8 112.32 148.68H112.3Z" fill="#3F6E9B"/>
<path d="M80.74 154.02C78.58 162.27 79.62 170.8 78.96 179.13C78.73 182.01 77.5 185.24 77.18 188.24H75.85C75.9 187.47 74.48 178 74.96 172.91C70.48 153.86 72.39 156.14 80.74 154.02Z" fill="#A24983"/>
<path d="M85.6298 153.13C85.0498 159.08 84.0298 165.04 82.9598 170.91C81.6098 178.36 80.1798 185.85 78.0698 193.13C78.0098 192.95 76.9798 192.23 76.2898 189.8C76.1598 189.05 77.1098 188.87 77.1798 188.24C77.4898 185.24 78.7298 182.01 78.9598 179.13C79.6198 170.79 78.5798 162.27 80.7398 154.02C82.3798 153.6 83.9998 153.51 85.6298 153.13Z" fill="#5C3D6D"/>
<path d="M257.19 146.91C255.2 143.61 255.57 146 255.41 146.02C251.63 146.45 250 147.28 247.41 147.8C242.53 148.77 234.39 149.12 230.97 151.8C229.9 150.46 229.62 150.2 228.3 149.13C227.91 148.81 227.23 148.51 227.41 147.8C234.42 147.04 241.28 145.05 248.3 144.24C250.88 143.94 253.45 143.33 256.08 143.35C256.77 144.65 257.11 146.74 257.19 146.91Z" fill="#428CA5"/>
<path d="M93.19 172.24C91.34 176.04 91.06 183.04 90.97 187.8C90.78 197.33 92.16 201.63 92.3 204.24C90.38 204.17 92.68 205.49 91.19 206.46C85.23 208.19 78.53 214.09 78.52 211.35C83.16 200.13 84.76 187.81 86.96 175.79C87.69 171.81 88.62 167.81 89.18 163.79C91 163.3 92.74 162.64 94.51 162.01C94.76 165.23 93.65 168.99 93.18 172.23L93.19 172.24Z" fill="#4F93BA"/>
<path d="M89.1898 163.8C88.6199 167.82 87.6998 171.82 86.9698 175.8C82.4398 178.56 83.2598 187.1 82.9698 188.47C82.6698 189.88 81.1498 192.7 80.7498 194.25C80.6498 194.63 82.4798 197.57 79.4198 196.69C79.1098 195.58 78.4598 194.31 78.0898 193.13C80.1998 185.85 81.6299 178.36 82.9799 170.91L89.1998 163.8H89.1898Z" fill="#4F9BB2"/>
<path d="M92.3 204.24C92.4 206.01 92.92 207.79 92.08 208.24C89.36 209.12 86.42 211.33 83.86 212.24C81.79 212.97 79.71 213.88 77.42 213.57C76.92 213.3 78.47 211.5 78.53 211.35C78.53 214.09 85.23 208.19 91.2 206.46C92.69 205.49 90.4 204.17 92.31 204.24H92.3Z" fill="#428CA5"/>
<path d="M122.08 155.8C111.74 171.26 112.04 200.96 116.3 218.91C117.35 223.35 119.48 233.14 123.41 235.8L121.63 237.58C103.98 219.04 102.63 186.55 109.19 162.91C110.37 158.65 111.5 157.15 111.86 156.24C115.23 155.53 118.7 156.05 122.08 155.8Z" fill="#7FB3CF"/>
<path d="M103.41 186.02C102.63 198.05 103.16 209.82 106.97 221.35C108.39 225.65 111.76 229.53 110.08 230.46C97.9399 218.49 92.6199 206.54 91.8599 189.13C96.3599 189.05 102.06 181.01 103.42 186.02H103.41Z" fill="#4F9BB2"/>
<path d="M107.85 159.8C105.25 168.15 103.97 177.28 103.41 186.02C102.05 181.01 96.3599 189.05 91.8499 189.13C91.8299 188.69 91.8499 188.24 91.8499 187.8C91.7499 182.54 92.4299 177.42 93.1799 172.24C93.6599 168.99 94.7599 165.24 94.5099 162.02C98.2699 160.69 103.77 158.14 107.84 159.8H107.85Z" fill="#69AEC3"/>
<path d="M139.41 148.68C134.3 158.34 128.22 167.5 126.08 178.46C126 178.87 125.25 176.81 125.64 182.02C125.34 182.02 124.83 181.91 124.75 182.24C122.6 191.2 122.46 206.11 123.42 215.35C123.92 220.11 124.31 222.72 125.64 227.35C125.77 227.8 125.61 230.16 126.97 232.68H124.3C123.03 229.38 121.61 224.58 120.74 221.12L121.18 192.68C123.33 178.7 124.78 174.31 130.51 161.57C130.58 161.41 130.78 159.19 130.95 158.24C131.64 157.33 132.19 156.35 132.73 155.35C132.97 154.91 136.12 151.92 137.17 148.68C137.9 148.69 138.67 148.63 139.39 148.68H139.41Z" fill="#473856"/>
<path d="M117.63 196.24C117.04 201.38 116.18 209.78 118.96 214.02C118.44 216.66 120.16 218.82 120.74 221.13C121.61 224.59 123.03 229.39 124.3 232.69C125.06 234.68 125.13 235.65 125.19 235.8C124.37 236.34 124.22 236.35 123.41 235.8C119.48 233.14 117.35 223.35 116.3 218.91C115.37 211.2 114.61 203.62 114.97 195.8L117.64 196.24H117.63Z" fill="#53C1DA"/>
<path d="M114.52 148.68C113.6 151.11 112.8 153.85 111.85 156.24C111.49 157.15 110.37 158.64 109.18 162.91C108.17 160.61 110.61 160.93 107.85 159.8C109.06 155.91 111.21 152.55 112.29 148.69C113.02 148.66 113.78 148.73 114.51 148.69L114.52 148.68Z" fill="#5C3D6D"/>
<path d="M125.19 235.8C126.36 238.63 128.94 241.23 129.86 244.24C127.05 243.09 123.77 239.82 121.64 237.57L123.42 235.79C124.23 236.34 124.37 236.33 125.2 235.79L125.19 235.8Z" fill="#37A1AF"/>
<path d="M234.52 234.91C232.63 238.64 230 241.15 226.96 243.8C224.65 243.54 227.29 242.88 228.29 240.47C229.35 237.9 231.84 228.7 229.62 227.36C230.27 223.42 230.31 219.76 230.51 215.8C234.18 212.68 237.35 208.39 239.84 204.24C240.89 212.55 238.27 227.47 234.51 234.91H234.52Z" fill="#697F96"/>
<path d="M230.52 213.57C230.65 209.68 229.99 205.54 230.08 205.13C230.92 201.26 232.68 203.58 238.52 201.13C235.97 205.32 234.19 210.2 230.52 213.57Z" fill="#83436E"/>
<path d="M233.19 197.57C234.6 199.56 239.44 190.87 234.97 199.57C235.35 200.02 237.34 199.75 238.08 199.79C238.6 199.82 239.06 198.52 238.97 200.68C238.36 200.99 238.55 201.11 238.53 201.12C232.68 203.57 230.93 201.25 230.09 205.12H229.65C229.45 203.23 229.93 200.57 229.65 198.9C231.4 198.93 230.83 197.49 230.98 197.12C231.64 195.56 232.3 194.6 232.31 194.45H232.75C232.65 195.56 233.45 196.42 233.19 197.56V197.57Z" fill="#181014"/>
<path d="M226.96 243.8C226.27 244.4 222.59 248.39 221.63 247.58C224.35 244.15 225.54 241.17 226.96 237.14C228.09 233.95 229.07 230.72 229.63 227.36C231.85 228.7 229.36 237.9 228.3 240.47C227.3 242.88 224.66 243.55 226.97 243.8H226.96Z" fill="#3C6D7F"/>
<path d="M241.63 200.68C241.04 201.47 240.51 203.14 239.85 204.24C237.35 208.38 234.19 212.67 230.52 215.8C230.56 215.07 230.49 214.31 230.52 213.58C234.19 210.21 235.97 205.32 238.52 201.14C238.55 201.13 238.35 201.01 238.96 200.7C240.57 199.89 240.12 198.49 241.63 200.7V200.68Z" fill="#5C3D6D"/>
<path d="M91.85 187.8H90.96C91.06 183.05 91.33 176.04 93.18 172.24C92.42 177.41 91.75 182.53 91.85 187.8Z" fill="#355A8B"/>
<path d="M250.52 214.46C249.71 222.23 246.53 224.72 250.52 223.35C248.3 228.06 242.28 237.09 242.52 232.46C242.52 232.28 243.7 229.9 243.85 229.13C246.68 214.71 246.19 201.35 243.85 186.91C242.09 176.01 240.03 170.21 235.41 160.24C241.39 164.93 250.34 192.63 250.97 199.57C251.33 203.59 250.96 210.31 250.53 214.46H250.52Z" fill="#4F9BB2"/>
<path d="M237.19 182.46C238.25 182.98 239.62 183.4 240.75 183.79C240.78 184 241.89 185.3 242.08 186.68C241.74 187.62 241.11 190.16 241.19 190.9C241.39 192.72 241.96 194.54 241.63 196.46C244.02 196.42 242.5 199.97 242.52 200.24C242.32 200.29 241.66 200.64 241.63 200.68C240.12 198.47 240.57 199.87 238.96 200.68C239.05 198.52 238.59 199.82 238.07 199.79C238.54 195.04 241.12 191.39 239.18 186.46C237.08 189.91 236.87 195.61 233.18 197.57C233.44 196.43 232.63 195.57 232.74 194.46C232.85 193.21 236.95 185.6 236.3 182.46C236.59 182.48 236.9 182.45 237.19 182.46Z" fill="#692955"/>
<path d="M230.96 151.8C234.6 156.34 233.44 156.01 235.4 160.24C240.03 170.2 242.08 176.01 243.84 186.91C241.03 187.22 242.96 191.2 241.17 190.91C241.09 190.17 241.72 187.62 242.06 186.69C241.87 185.31 240.76 184.02 240.73 183.8C239.58 175.69 238.91 173.49 235.84 166.02C234.18 161.99 230.95 154.19 227.84 151.8C227.99 151.72 229.71 149.92 228.28 149.13C229.6 150.2 229.88 150.46 230.95 151.8H230.96Z" fill="#355A8B"/>
<path d="M238.08 230.91C237.56 232.12 235.09 237.58 234.52 234.91C238.28 227.47 240.9 212.56 239.85 204.24C240.51 203.14 241.04 201.47 241.63 200.68C241.66 200.64 242.32 200.28 242.52 200.24C243.15 210.85 242.35 221.06 238.08 230.91Z" fill="#646A86"/>
<path d="M255.41 146.02C257.48 154.54 259.16 163.17 260.74 171.8C260.22 171.65 260.26 172.82 260.07 172.69C259.06 172 249.94 154.08 248.74 151.13C248.55 150.67 247.78 150.17 247.85 150.91C247.59 149.84 247.85 148.85 247.41 147.8C250 147.29 251.63 146.45 255.41 146.02Z" fill="#A9D4DC"/>
<path d="M255.41 174.46C256.7 177.68 259.75 186.42 262.97 186.9C263.72 190.99 264.41 192.91 265.64 196.68C261.85 197.18 259.44 191.57 256.75 189.12C255.71 183.81 254.94 178.46 254.08 173.12C254.83 173.59 254.77 173.08 255.41 174.45V174.46Z" fill="#7FB3CF"/>
<path d="M262.08 179.35C262.32 180.69 262.35 183.54 262.97 186.91C259.76 186.43 256.71 177.69 255.41 174.47C254.5 172.19 253.96 169.12 253.19 166.91C256.89 166.92 259.83 177.2 261.19 179.58C261.48 180.08 261.61 179.35 262.08 179.36V179.35Z" fill="#8CCFD6"/>
<path d="M260.74 171.8C261.2 174.31 261.63 176.84 262.07 179.36C261.6 179.35 261.47 180.08 261.18 179.58C259.82 177.2 256.88 166.92 253.18 166.91C251.36 161.7 249.13 156.27 247.85 150.91C247.78 150.17 248.55 150.67 248.74 151.13C249.95 154.08 259.07 172 260.07 172.69C260.26 172.82 260.21 171.65 260.74 171.8Z" fill="#D3EDEF"/>
<path d="M265.63 196.68C265.76 197.08 265.68 197.52 266.07 198.01C265.81 198.18 266.56 200.66 261.18 198.45C255.74 196.22 257.65 193.79 256.74 189.12C259.43 191.56 261.84 197.18 265.63 196.68Z" fill="#3E7DA1"/>
<path d="M247.41 147.8C247.85 148.85 247.6 149.84 247.85 150.91C249.13 156.27 251.36 161.7 253.18 166.91C253.95 169.11 254.49 172.19 255.4 174.47C254.75 173.1 254.82 173.6 254.07 173.14C254.03 173.12 253.97 172.22 253.18 172.92C254.96 184.45 256.64 196.66 254.96 208.25C254.8 209.33 254.75 210.24 254.52 211.36C252.91 212.17 252.62 214.85 250.52 214.47C250.95 210.32 251.33 203.6 250.96 199.58C250.34 192.64 241.38 164.93 235.4 160.25C233.43 156.02 234.59 156.35 230.96 151.81C234.39 149.13 242.52 148.78 247.4 147.81L247.41 147.8Z" fill="#8CCFD6"/>
<path d="M250.52 223.35C246.53 224.72 249.71 222.23 250.52 214.46C252.62 214.84 252.91 212.15 254.52 211.35C253.89 214.41 251.84 220.55 250.52 223.35Z" fill="#33B0C7"/>
<path d="M150.96 148.68C162.65 160.74 174.59 170.37 190.96 175.35C194.38 176.39 195.84 174.41 194.07 178.46C185.19 176.9 175.27 173.42 177.63 175.79C169.28 172.45 161.3 168.07 152.96 164.68L152.74 163.35C155.81 163.32 158.63 163.7 161.63 164.24C161.78 164.27 163.52 164.95 164.52 165.13C165.89 164.55 148.95 152.32 149.19 148.69C149.62 148.56 150.4 148.75 150.97 148.69L150.96 148.68Z" fill="#A46184"/>
<path d="M174.52 149.57C177.65 153.1 181.23 156.21 184.74 159.35C194.15 167.74 206.72 177.69 220.3 175.57C213.45 172.38 207.71 167.4 202.08 162.46L202.52 161.57C203 162 211.93 168.44 212.96 169.13C215.71 170.94 233.39 180.59 237.18 182.46C236.89 182.45 236.58 182.48 236.29 182.46C235.84 182.43 233.33 182.07 233.18 182.02C233.01 181.96 233.52 181.8 230.07 180.24C227.24 178.96 224.55 177.34 221.85 175.8C217.81 177.71 210.35 178.11 206.07 177.13C200.15 175.78 187.3 164.75 182.51 160.24C178.88 156.81 175.78 152.71 171.84 149.57C172.68 149.58 173.63 149.57 174.51 149.57H174.52Z" fill="#5C3D6D"/>
<path d="M227.41 147.8C227.23 148.51 227.9 148.81 228.3 149.13C229.73 149.91 228.01 151.72 227.86 151.8C226.56 152.49 219.49 152.25 216.97 152.69C214.15 153.18 212.13 154.42 211.86 154.47C208.37 155.05 202.15 154.55 198.97 156.69C197.13 154.65 194.09 152.63 193.19 149.58C202.34 149.4 218.71 148.75 227.41 147.8Z" fill="#3F6E9B"/>
<path d="M137.19 148.68C136.14 151.92 132.98 154.91 132.75 155.35C130.79 155.73 128.86 154.87 126.97 154.91C121.35 155.02 122.34 155.78 122.08 155.8C118.7 156.05 115.23 155.53 111.86 156.24C112.81 153.85 113.61 151.11 114.53 148.68C121.98 148.28 129.74 148.56 137.2 148.68H137.19Z" fill="#3E7DA1"/>
<path d="M171.85 149.57C175.79 152.71 178.88 156.81 182.52 160.24L181.19 161.13C179.31 159.33 177.36 157.52 175.41 155.8C174.52 154.56 172.11 151.56 174.08 154.69C171.44 156.98 166.05 158.14 167.86 160.69C163.79 157.29 159.83 153.85 157.19 149.13C162.07 149.15 167 149.51 171.86 149.57H171.85Z" fill="#4D6897"/>
<path d="M193.19 149.57C194.08 152.62 197.13 154.64 198.97 156.68C199.82 157.62 201.42 160.57 202.53 161.57L202.09 162.46C199.01 159.75 195.93 156.84 193.42 153.57C191.57 156.65 186.29 156.14 184.75 159.35C181.24 156.21 177.66 153.11 174.53 149.57C180.71 149.62 187 149.69 193.2 149.57H193.19Z" fill="#355A8B"/>
<path d="M157.19 149.13C159.83 153.85 163.79 157.28 167.86 160.69C174.93 166.61 182.75 170.74 191.42 174.02L190.98 175.35C174.61 170.38 162.67 160.74 150.98 148.68C154.36 148.3 154.91 149.11 157.2 149.12L157.19 149.13Z" fill="#4E4475"/>
<path d="M161.63 164.24C162.69 163.8 160.04 162.55 159.41 162.02C154.96 158.32 150.74 154.22 146.52 150.24C146.52 149.43 148.58 148.86 149.19 148.68C148.95 152.31 165.89 164.54 164.52 165.12C163.52 164.94 161.78 164.26 161.63 164.23V164.24Z" fill="#B565A3"/>
<path d="M126.96 154.91C119.87 167.1 115.61 181.6 114.96 195.8C114.6 203.63 115.36 211.2 116.29 218.91C112.03 200.96 111.73 171.26 122.07 155.8C122.33 155.78 121.34 155.02 126.96 154.91Z" fill="#D3EDEF"/>
<path d="M132.74 155.35C132.2 156.35 131.65 157.33 130.96 158.24C130.79 159.2 130.59 161.42 130.52 161.57C124.31 164.88 118.49 188.79 117.63 196.24L114.96 195.8C115.61 181.6 119.87 167.1 126.96 154.91C128.85 154.87 130.77 155.74 132.74 155.35Z" fill="#8CCFD6"/>
<path d="M130.52 161.57C124.78 174.31 123.34 178.71 121.19 192.68C120.87 194.76 119.88 194.99 119.86 195.12C119.25 199.69 120.09 208.68 118.97 214.01C116.18 209.78 117.04 201.38 117.64 196.23C118.5 188.78 124.32 164.88 130.53 161.56L130.52 161.57Z" fill="#4F9BB2"/>
<path d="M120.74 221.13C120.16 218.82 118.44 216.65 118.96 214.02C120.08 208.69 119.24 199.7 119.85 195.13C119.87 194.99 120.86 194.77 121.18 192.69L120.74 221.13Z" fill="#3C6D7F"/>
<path d="M238.08 199.8C237.34 199.75 235.34 200.03 234.97 199.58C239.45 190.88 234.6 199.57 233.19 197.58C236.88 195.61 237.09 189.92 239.19 186.47C241.13 191.4 238.55 195.05 238.08 199.8Z" fill="#785169"/>
<path d="M236.3 182.46C236.95 185.6 232.86 193.21 232.74 194.46H232.3C232.35 193.78 231.72 191.92 231.41 191.35L233.19 182.02C233.34 182.07 235.85 182.43 236.3 182.46Z" fill="#9F5B91"/>
<path d="M91.8499 187.8C91.8499 188.24 91.8299 188.69 91.8499 189.13C92.6099 206.54 97.9399 218.49 110.07 230.46C114.22 234.55 118.82 237.94 122.96 242.02C112.9 235.35 106.03 231 99.1799 220.24C96.0499 220.47 85.0199 214.92 83.8499 213.13C83.7999 213.05 83.8799 212.6 83.8499 212.24C86.4099 211.33 89.3499 209.12 92.0699 208.24C92.9099 207.79 92.3899 206.01 92.2899 204.24C92.1499 201.63 90.7599 197.32 90.9599 187.8H91.8499Z" fill="#662741"/>
<path d="M96.7399 218.46C96.4299 217.35 95.5799 217.65 95.4099 217.57C95.1499 217.37 93.8399 215.93 93.1899 215.35C94.1199 215.15 91.1699 212.24 90.9699 213.57C90.7399 213.41 90.3699 213.2 90.0799 213.13C89.3799 211.19 92.7399 209.9 92.9699 210.02C93.4499 210.27 97.8099 218.36 98.2999 219.35C97.3999 219.33 96.8199 218.51 96.7399 218.46Z" fill="#6F7281"/>
<path d="M90.9598 213.57C91.7098 214.08 92.5098 214.74 93.1798 215.35C93.8298 215.94 95.1398 217.37 95.3998 217.57C93.7398 216.86 90.6898 214.84 90.0698 213.13C90.3598 213.2 90.7198 213.41 90.9598 213.57Z" fill="#DEE0DC"/>
<path d="M96.7399 218.46C95.9999 218.04 96.0699 218.09 95.4099 217.57C95.5899 217.65 96.4299 217.35 96.7399 218.46Z" fill="#DEE0DC"/>
<path d="M93.19 215.35C92.52 214.74 91.72 214.09 90.97 213.57C91.17 212.24 94.12 215.14 93.19 215.35Z" fill="#3B2140"/>
<path d="M211.85 154.46C216.83 161.23 227.63 169.92 235.85 166.02C238.92 173.48 239.58 175.69 240.74 183.8C239.61 183.4 238.24 182.99 237.18 182.47C233.39 180.6 215.71 170.95 212.96 169.14C211.92 168.46 202.99 162.02 202.52 161.58C201.42 160.58 199.81 157.63 198.96 156.69C202.14 154.55 208.36 155.05 211.85 154.47V154.46Z" fill="#89BED1"/>
<path d="M227.85 151.8C230.96 154.19 234.19 161.99 235.85 166.02C227.63 169.92 216.83 161.23 211.85 154.46C212.12 154.42 214.14 153.18 216.96 152.68C219.48 152.24 226.55 152.48 227.85 151.79V151.8Z" fill="#A9D4DC"/>
<path d="M206.08 178.02C207.58 178.45 209.42 179.83 210.97 180.24C205.16 180.9 199.7 179.45 194.08 178.46C195.85 174.41 194.39 176.39 190.97 175.35L191.41 174.02C194.34 175.13 199.93 177.16 202.74 178.02C203.52 178.26 205.26 177.79 206.07 178.02H206.08Z" fill="#A46184"/>
<path d="M202.08 162.46C207.71 167.4 213.45 172.38 220.3 175.57C206.72 177.69 194.15 167.74 184.74 159.35C186.28 156.14 191.56 156.65 193.41 153.57C195.92 156.84 198.99 159.75 202.08 162.46Z" fill="#6885AB"/>
<path d="M175.41 155.8C179.73 161.78 184.91 166.47 190.74 170.91C191.68 171.13 191.08 169.97 190.96 169.8C190.59 169.26 182.85 162.73 181.18 161.13L182.51 160.24C187.3 164.75 200.14 175.78 206.07 177.13V178.02C205.26 177.79 203.52 178.26 202.74 178.02C199.92 177.16 194.34 175.13 191.41 174.02C182.75 170.74 174.93 166.61 167.85 160.69C166.04 158.14 171.43 156.98 174.07 154.69C172.1 151.56 174.51 154.56 175.4 155.8H175.41Z" fill="#6885AB"/>
<path d="M230.08 180.24C225.26 182.8 219.22 180.92 213.86 182.02C213.3 181.37 211.66 180.43 210.97 180.24C209.43 179.83 207.58 178.45 206.08 178.02V177.13C210.35 178.11 217.82 177.71 221.86 175.8C224.56 177.34 227.25 178.96 230.08 180.24Z" fill="#BE7987"/>
<path d="M181.19 161.13C182.85 162.72 190.6 169.26 190.97 169.8C191.09 169.97 191.69 171.13 190.75 170.91C184.91 166.47 179.74 161.78 175.42 155.8C177.37 157.53 179.32 159.33 181.2 161.13H181.19Z" fill="#7FB3CF"/>
<path d="M108.3 312.68C96.9099 318.41 85.6599 339.76 77.4099 345.57C73.6799 348.2 74.3199 347.46 71.4099 347.79C70.5999 347.88 67.7799 347.52 67.4099 348.01C83.5799 367.22 91.3099 351.17 100.08 336.23C101.22 336.78 95.3199 347.47 94.5199 348.9C90.8299 355.57 86.9599 355.69 89.1899 363.57C90.0999 365.51 90.8399 365.05 90.9699 365.13C93.6399 366.74 106.66 366.52 110.53 366.46C114.15 366.41 117.79 366.5 121.42 366.46L122.53 365.35C122.23 355.65 121.84 345.92 121.2 336.24C123.91 336.31 126.03 336.49 124.76 334.46C124.83 334.54 126.26 335.45 126.54 335.79C126.24 336.64 125.43 337.67 125.21 338.46C123.77 343.63 125.37 359.96 124.77 366.68C127.63 370.19 131.67 371.34 135.88 372.24C137.96 372.68 148.67 374 150.55 374.02C151.67 374.03 157.24 373.96 157.66 372.91C155.22 368.3 153.8 363.28 151.88 358.47H153.66C154.39 361.1 158.45 371.59 160.55 372.69C161.64 373.26 173.43 374.84 174.11 372.02C174.49 370.44 170.28 359.95 169.22 358.02C170.69 354.26 174.67 357.08 175 359.8C166.15 353.67 174.91 361.26 176.33 369.36C178.48 381.56 162.07 371.98 156.11 376.25C154.7 376.26 153.29 376.23 151.89 376.25C151.73 376.25 151.44 375.91 148.78 375.81C145.38 375.67 141.91 375.43 138.56 374.92C137.56 374.77 136.41 374.66 135.45 374.48C129.8 373.39 126.83 373.13 122.78 368.26C115.94 368.62 108.97 369.04 102.11 368.7C101.08 368.65 100.02 368.78 98.9999 368.7C97.5199 368.58 94.5099 368.48 93.4399 368.26C82.8099 365.98 88.3899 358.39 85.4399 357.59C75.7399 360.81 67.3199 354.12 63.8799 345.37C64.0599 344.13 70.3099 346.81 74.3199 345.15C78.5499 343.4 96.5499 317.14 106.1 312.26C106.69 311.94 106.52 311.84 106.54 311.82L107.87 311.38C107.91 311.44 107.86 312.08 108.31 312.71L108.3 312.68Z" fill="#21281C"/>
<path d="M102.08 368.68C102.55 372.78 105.13 376.22 106.97 379.79C116.08 397.47 122.91 400.58 122.53 416.9C124.95 428.96 138.67 449.66 140.31 456.9C140.32 456.96 139.68 457.21 139.87 458.01C136.04 456.66 137.42 459.34 135.87 460.23C136.1 458.65 136.86 455.02 136.76 454.23C136.42 451.56 121.48 426.53 120.09 417.12C114.01 421.2 94.2499 432.24 91.4199 437.79C88.7299 443.07 91.4399 447.66 93.6399 452.68C92.6799 453.46 91.6499 452.94 90.9699 453.12C78.8399 431.23 107.11 425.04 119.86 413.79C118.7 407.52 119.98 403.18 114.75 398.46C99.1899 409.99 89.4799 426.76 74.9699 439.35C74.8499 436.11 77.1599 433.74 75.8599 432.68C92.6799 420.15 87.7999 421.23 95.8599 412.46C101.35 406.49 107.79 401.59 113.64 396.02C107.67 387.56 102.91 378.26 98.9699 368.69C99.9899 368.77 101.06 368.64 102.08 368.69V368.68Z" fill="#5C1F27"/>
<path d="M138.52 374.91L140.96 390.47C141.62 390.98 148.13 378.86 148.74 375.8C151.4 375.91 151.69 376.25 151.85 376.24L141.18 395.13C142.08 409.14 145.16 444.79 149.62 456.02C151.11 459.77 154.88 464.1 156.73 467.8H153.62C153.69 466.85 148.91 460.16 147.4 456.02C144.41 447.82 141 420.14 139.84 409.8C139.14 403.54 139.95 396.73 137.62 383.8C137.06 380.67 136.51 377.46 135.4 374.47C136.36 374.66 137.52 374.76 138.51 374.91H138.52Z" fill="#5C1F27"/>
<path d="M230.52 213.57C230.49 214.3 230.56 215.06 230.52 215.79C230.32 219.75 230.29 223.41 229.63 227.35C229.07 230.71 228.09 233.94 226.96 237.13C225.41 236.77 225.06 237.91 223.85 238.46C213.52 243.19 195.43 249.38 184.29 250.02C183.8 246.81 177.91 252.61 178.07 247.35C188.73 247.74 220.82 241.47 225.18 230.91C226.09 228.7 225.72 229.07 226.07 227.35C228.5 221.25 227.83 215.93 228.29 209.57C228.41 207.91 229.4 206.73 229.62 205.13H230.06C229.97 205.54 230.64 209.68 230.5 213.57H230.52Z" fill="#3D171B"/>
<path d="M159.41 348.24C164.42 352.05 166.07 352.33 169.19 358.02C170.25 359.95 174.46 370.44 174.08 372.02C173.4 374.84 161.61 373.26 160.52 372.69C158.42 371.58 154.37 361.1 153.63 358.47C152.93 355.98 152.48 353.42 151.85 350.91C152.24 350.82 159.08 348.47 159.41 348.24Z" fill="#8AA53D"/>
<path d="M176.74 286.91C174.51 290.46 172.08 291.13 170.07 293.8C169.28 294.85 168.61 297.22 167.85 298.47C166.65 300.42 167.02 300.59 166.96 300.69C163 307.79 155.38 319.12 161.18 326.69C161.43 330.75 160.46 336.63 163.4 339.36C160.34 338.45 160.72 336.41 160.51 336.25C160.34 336.12 159.55 336.37 159.4 336.25C159.36 336.22 159 335.56 158.96 335.36C158.88 327.12 159.84 326.13 154.07 325.14C151.44 322.12 155.92 324.42 156.74 322.25C156.27 314.99 163.38 299.51 167.41 293.58C168.13 292.53 168.86 291.48 169.63 290.47C171.72 287.75 174.18 287.31 176.3 282.91C176.33 282.85 176.98 282.05 177.19 282.02C177.23 282.5 177.8 282.78 178.08 283.13L176.75 286.91H176.74Z" fill="#21281C"/>
<path d="M115.41 320.24C116.24 339.71 116.12 347.64 110.52 366.46C106.65 366.52 93.6299 366.73 90.9599 365.13C91.5399 364.56 95.4199 365.24 95.6299 365.13C97.4899 364.09 109.3 329.62 106.3 327.35C106.22 327.29 105.08 328.7 104.97 328.68C104.44 328.58 105.89 326.28 104.53 326.01C103.07 325.73 92.5599 344.97 84.9699 348.23C81.3599 349.79 73.8299 350.06 71.4099 347.79C74.3199 347.46 73.6799 348.19 77.4099 345.57C85.6599 339.76 96.9099 318.41 108.3 312.68C108.66 313.19 114.07 318.88 115.41 320.24Z" fill="#D4E050"/>
<path d="M167.41 293.57C163.38 299.49 156.28 314.98 156.74 322.24C155.93 324.41 151.45 322.11 154.07 325.13C153.55 325.04 153.81 326.58 144.29 323.35C137.6 317.39 130.61 310.88 125.62 303.35C127.74 301.25 128.92 298.67 129.62 295.79C135.15 295.91 141 294.01 146.73 293.57C153.46 293.05 160.65 293.4 167.4 293.57H167.41Z" fill="#8AA53D"/>
<path d="M216.3 330.91C216.55 333.08 217.73 337.23 214.74 338.02C208.35 339.72 208.9 332.91 202.74 327.8C196.91 322.96 179.03 315.32 167.85 298.47C168.62 297.22 169.29 294.85 170.07 293.8C172.07 291.13 174.51 290.47 176.74 286.91C176.76 286.88 176.87 287.07 177.18 286.47C184.59 295.03 177.25 299.25 186.51 309.36C194.35 317.92 208.51 322.85 216.29 330.92L216.3 330.91Z" fill="#DA9F83"/>
<path d="M148.74 265.57C148.61 265.49 147.89 265.76 146.3 263.79L145.63 264.46L145.85 282.9C154.14 282.35 171.72 286.68 175.18 278.01C178.13 280.38 174.24 283.18 176.29 282.9C174.17 287.3 171.72 287.73 169.62 290.46C158.36 288.73 146.2 288.49 135.4 287.13C135.21 285.98 139.01 272.52 138.07 269.57C139.56 264.6 139.89 253.47 133.18 252.46C144.24 246.71 142.2 255.43 148.74 265.57Z" fill="#D4E050"/>
<path d="M174.08 262.46C174.26 262.95 176.07 271.41 176.3 272.68C176.6 274.33 177.02 279.82 177.19 282.01C176.98 282.04 176.33 282.84 176.3 282.9C174.25 283.18 178.14 280.38 175.19 278.01C171.73 286.68 154.15 282.35 145.86 282.9L145.64 264.46L146.31 263.79C147.9 265.75 148.62 265.49 148.75 265.57C152.09 267.48 156.05 271.32 161.86 270.46C164.45 270.07 167.36 267.32 167.86 264.68C169.77 264.8 170.91 261.95 174.08 262.46Z" fill="#D4E383"/>
<path d="M149.19 351.8C149.61 354.18 150.99 356.3 151.86 358.47C153.78 363.28 155.2 368.3 157.64 372.91C157.22 373.96 151.65 374.03 150.53 374.02C144.27 358.07 137.27 348.83 126.53 335.8C126.25 335.46 124.83 334.55 124.75 334.47C122.66 332.1 124.01 329.89 120.75 330.47C120.65 328.53 120.12 326.66 120.31 324.69C127.34 330.94 136.67 336.81 137.42 337.58C141.71 341.96 142.73 351.98 149.2 351.8H149.19Z" fill="#8AA53D"/>
<path d="M216.3 330.91C208.52 322.84 194.37 317.92 186.52 309.35C177.26 299.24 184.59 295.02 177.19 286.46C180.54 280 177.92 276.72 177.63 271.35C177.54 269.63 177.55 267.2 178.52 270.24C180.86 277.58 182.4 289.05 185.63 296.91L215.41 325.8C215.93 327.45 216.1 329.2 216.3 330.91Z" fill="#FCC9A4"/>
<path d="M120.3 324.68C120.12 326.65 120.64 328.51 120.74 330.46C120.84 332.38 121.06 334.33 121.18 336.24C121.82 345.92 122.21 355.65 122.51 365.35L121.4 366.46C117.77 366.5 114.13 366.41 110.51 366.46C116.11 347.64 116.23 339.71 115.4 320.24C116.92 321.77 118.67 323.25 120.29 324.68H120.3Z" fill="#8AA53D"/>
<path d="M169.63 290.46C168.85 291.47 168.12 292.52 167.41 293.57C160.67 293.4 153.47 293.05 146.74 293.57C141.01 294.01 135.16 295.91 129.63 295.79C130.41 292.59 131.05 287.38 130.07 284.23C131.85 281.05 137.35 271.97 138.07 269.56C139.01 272.51 135.21 285.97 135.4 287.12C146.2 288.48 158.36 288.72 169.62 290.45L169.63 290.46Z" fill="#6D8839"/>
<path d="M130.96 220.24C132.78 232.38 143.38 235.88 153.63 239.35C151.86 243.2 148.48 238.03 145.63 239.35C144.24 238.81 142.53 238.62 141.19 238.02C135.53 235.49 130.29 231.35 125.63 227.35C124.3 222.72 123.9 220.11 123.41 215.35C133.77 214.73 128.18 216.36 130.97 220.24H130.96Z" fill="#BE7987"/>
<path d="M129.63 295.8C128.93 298.67 127.75 301.25 125.63 303.36C124.72 301.99 121.91 298.52 122.07 296.92C124.65 292.65 127.64 288.6 130.07 284.25C131.05 287.39 130.41 292.61 129.63 295.81V295.8Z" fill="#D4E050"/>
<path d="M154.08 325.13C159.85 326.13 158.89 327.11 158.97 335.35C154.07 331.22 149.12 327.63 144.3 323.35C153.82 326.58 153.56 325.04 154.08 325.13Z" fill="#8AA53D"/>
<path d="M153.63 239.35C165.78 243.47 179.35 244.44 170.96 246.46C163.32 245.37 152.88 242.17 145.63 239.35C148.48 238.03 151.86 243.2 153.63 239.35Z" fill="#DDA9A0"/>
<path d="M141.19 238.02C138.21 238.09 129.05 234.86 127.41 233.13C127.39 233.11 127.5 232.64 126.97 232.69C125.61 230.17 125.77 227.81 125.64 227.36C130.3 231.36 135.54 235.49 141.2 238.03L141.19 238.02Z" fill="#83436E"/>
<path d="M174.08 262.46C170.91 261.95 169.77 264.81 167.86 264.68C168.12 263.31 167.29 256.5 167.64 256.24C170.47 257.65 172.9 259.32 174.08 262.46Z" fill="#D4E050"/>
<path d="M177.19 286.46C176.88 287.07 176.76 286.88 176.75 286.9L178.08 283.12C177.81 282.77 177.23 282.49 177.19 282.01C177.02 279.82 176.6 274.33 176.3 272.68L177.63 271.35C177.91 276.72 180.53 280 177.19 286.46Z" fill="#331C21"/>
<path d="M151.85 350.91C152.48 353.41 152.93 355.97 153.63 358.47H151.85C150.99 356.3 149.6 354.18 149.18 351.8C149.32 351.8 149.05 351.54 151.85 350.91Z" fill="#52652E"/>
<path d="M141.19 238.02C142.54 238.62 144.25 238.81 145.63 239.35C152.89 242.17 163.32 245.37 170.96 246.46C173.34 246.8 175.65 247.26 178.07 247.35C177.91 252.61 183.8 246.8 184.29 250.02C178.4 250.36 171.93 250.07 166.29 248.24C164.11 255.84 171.3 255.32 174.07 258.24C178.88 263.32 184.54 287.66 187.4 295.57C198.13 305.55 207.36 316.99 218.96 326.01C221.71 331.37 217.96 326.21 218.07 329.57C218.14 331.65 219.05 336.13 218.07 338.01C218.02 338.11 216.83 337.4 216.29 339.34C204.93 341.54 200.65 344.8 201.62 330.23C188.75 322.09 175.66 313.5 166.95 300.67C167.01 300.57 166.64 300.39 167.84 298.45C179.02 315.3 196.9 322.94 202.73 327.78C208.89 332.9 208.34 339.71 214.73 338C217.71 337.21 216.53 333.06 216.29 330.89C216.09 329.18 215.93 327.43 215.4 325.78L185.62 296.89C182.39 289.03 180.85 277.56 178.51 270.22C177.54 267.18 177.53 269.61 177.62 271.33L176.29 272.66C176.06 271.39 174.25 262.93 174.07 262.44C172.88 259.3 170.46 257.63 167.63 256.22C167.29 256.49 168.11 263.3 167.85 264.66C167.35 267.3 164.44 270.05 161.85 270.44C156.04 271.31 152.08 267.46 148.74 265.55C142.2 255.41 144.24 246.69 133.18 252.44C139.89 253.45 139.56 264.58 138.07 269.55C137.35 271.95 131.85 281.04 130.07 284.22C127.64 288.57 124.65 292.62 122.07 296.89C121.9 298.49 124.72 301.96 125.63 303.33C130.62 310.86 137.6 317.37 144.3 323.33C149.11 327.61 154.07 331.2 158.97 335.33C159.02 335.53 159.38 336.19 159.41 336.22C159.48 336.96 159.01 337.13 158.97 338C158.85 340.59 161.32 344.12 160.75 347.33C159.66 347.15 159.48 348.17 159.42 348.22C159.09 348.45 152.26 350.8 151.86 350.89C149.06 351.52 149.33 351.78 149.19 351.78C142.72 351.95 141.71 341.94 137.41 337.56C136.66 336.8 127.33 330.92 120.3 324.67C118.68 323.23 116.93 321.76 115.41 320.23C114.07 318.87 108.66 313.18 108.3 312.67C107.84 312.03 107.89 311.4 107.86 311.34C107.51 310.82 107.43 310.92 107.42 310.9C107.08 310.35 106.57 309.64 106.53 309.57C105.94 308.47 104.01 304.8 103.86 304.24C103.42 302.53 103.3 300.67 103.42 298.91C103.64 295.52 105.38 291.43 106.53 288.24C106.56 288.16 106.87 288.33 107.42 286.91C107.81 285.89 108.32 284.82 108.75 283.8C109.06 283.08 109.31 282.31 109.64 281.58C109.65 281.55 109.8 281.76 110.08 281.14C111.65 277.73 114.08 272.15 115.86 269.14C115.89 269.09 116.27 269.03 116.75 268.25C116.82 268.14 116.68 267.91 116.75 267.81C117.14 267.18 117.17 266.96 117.19 266.92C117.67 266.16 118.77 264.72 119.41 263.81C121.72 260.54 124.07 257.06 127.19 254.48C127.51 254.22 133.7 250.2 134.08 250.04C134.71 249.77 135.7 249.3 136.3 249.15C140.15 248.19 146.08 250.97 147.41 242.71L130.52 238.49C130.36 238.22 128.19 237.38 127.41 233.16C129.05 234.89 138.21 238.11 141.19 238.05V238.02Z" fill="#5C1F27"/>
<path d="M152.74 332.68C152.93 333.53 153.11 334.03 152.74 334.9C152.65 335.1 150.5 338.38 150.3 338.46C144.8 340.43 112.28 312.78 107.86 306.9C107.36 305.86 105.32 302.66 105.19 301.79C104.05 294.2 122.8 257.05 129.86 254.46C133.31 253.19 136.45 254.4 137.19 258.24C139.69 271.23 124.71 285.96 119.86 297.35C129.77 316.02 142.77 323.3 152.75 332.68H152.74Z" fill="#FCC9A4"/>
<path d="M152.74 334.91C155.11 335.38 153.64 344.12 154.52 345.8C154.87 346.47 156.59 344.63 158.96 345.13C158.65 346.55 152.55 348.34 150.96 348.69C153.98 348.52 144.1 342.82 143.4 343.8C141.5 341 139.81 337.77 137.4 335.36C131.73 329.66 114.77 321.25 107.84 306.92C112.26 312.79 144.79 340.44 150.28 338.48C150.48 338.41 152.64 335.12 152.72 334.92L152.74 334.91Z" fill="#DA9F83"/>
<path d="M165.19 256.68C160.24 259.85 152.48 256.31 146.97 257.57C145.75 255.29 144.53 253.03 143.41 250.68C154.43 245.26 140.86 240.95 163.19 247.79C164.06 248.46 164.99 255.14 165.19 256.68Z" fill="#BB7A6D"/>
<path d="M146.96 257.57C152.47 256.31 160.23 259.85 165.18 256.68C165.34 257.92 167.86 263.76 163.18 266.9C155.86 271.8 149.97 263.18 146.96 257.57Z" fill="#FCC9A4"/>
<path d="M158.96 345.13C156.58 344.63 154.87 346.47 154.52 345.8C153.64 344.12 155.11 335.38 152.74 334.91C153.11 334.04 152.93 333.54 152.74 332.69C157.72 337.38 156.94 338.56 158.96 345.13Z" fill="#FCC9A4"/>
<path d="M150.96 348.68C143.92 350.21 146.55 348.43 143.4 343.79C144.1 342.81 153.97 348.51 150.96 348.68Z" fill="#C18D77"/>
<path d="M204.52 331.8C210.2 336.85 204.1 340.88 203.41 336.91C203.31 336.31 203.97 331.88 204.52 331.8Z" fill="#DA9F83"/>
<path d="M107.85 311.35L106.52 311.79C106.52 311.79 106.73 310.97 107.41 310.9C107.43 310.93 107.51 310.82 107.85 311.34V311.35Z" fill="#BDDFD8"/>
<path d="M90.9599 365.13C90.8399 365.06 90.0899 365.52 89.1799 363.57C86.9599 355.69 90.8199 355.57 94.5099 348.9C95.2999 347.47 101.2 336.78 100.07 336.23C91.2999 351.17 83.5799 367.21 67.3999 348.01C67.7699 347.52 70.5899 347.88 71.3999 347.79C73.8199 350.06 81.3399 349.79 84.9599 348.23C92.5399 344.97 103.06 325.72 104.52 326.01C105.89 326.28 104.44 328.58 104.96 328.68C105.07 328.7 106.22 327.29 106.29 327.35C109.29 329.62 97.4899 364.08 95.6199 365.13C95.4199 365.24 91.5299 364.56 90.9499 365.13H90.9599Z" fill="#9CC256"/>
<path d="M135.41 374.46C136.52 377.45 137.07 380.67 137.63 383.79C127.46 378.43 117.41 385.4 106.96 379.79C105.12 376.22 102.54 372.78 102.07 368.68C108.92 369.02 115.89 368.6 122.74 368.24C126.79 373.11 129.75 373.37 135.41 374.46Z" fill="#DA9F83"/>
<path d="M150.52 374.02C148.64 374 137.93 372.69 135.85 372.24C137.65 370.45 134.27 367.33 132.74 361.8C130.57 353.95 130.72 340.32 125.18 338.47C125.4 337.68 126.22 336.66 126.51 335.8C137.25 348.83 144.25 358.07 150.51 374.02H150.52Z" fill="#D4E050"/>
<path d="M135.85 372.24C131.64 371.34 127.6 370.19 124.74 366.68C125.34 359.96 123.75 343.63 125.18 338.46C130.72 340.32 130.56 353.95 132.74 361.79C134.27 367.32 137.65 370.44 135.85 372.23V372.24Z" fill="#9CC256"/>
<path d="M148.74 375.8C148.13 378.86 141.63 390.97 140.96 390.47L138.52 374.91C141.88 375.42 145.34 375.66 148.74 375.8Z" fill="#DA9F83"/>
<path d="M124.74 334.46C126.01 336.49 123.9 336.31 121.18 336.24C121.05 334.34 120.84 332.38 120.74 330.46C124 329.88 122.65 332.09 124.74 334.46Z" fill="#6D8839"/>
<path d="M137.63 383.8C139.96 396.73 139.15 403.54 139.85 409.8C141.01 420.14 144.42 447.82 147.41 456.02C148.92 460.16 153.7 466.84 153.63 467.8C153.38 471.1 144.91 469.96 143.19 469.13C139.92 467.56 140.57 461.02 139.86 458.02C139.67 457.22 140.32 456.97 140.3 456.91C138.66 449.67 124.94 428.97 122.52 416.91C122.9 400.59 116.07 397.48 106.96 379.8C117.41 385.41 127.46 378.44 137.63 383.8Z" fill="#FCC9A4"/>
<path d="M90.96 453.13C90.68 453.21 89.33 454.74 85.4 454.02C81.22 453.25 75.11 443.52 74.96 439.35C89.47 426.76 99.18 410 114.74 398.46C119.98 403.18 118.69 407.53 119.85 413.79C107.1 425.04 78.83 431.24 90.96 453.12V453.13Z" fill="url(#paint3_linear_65_2333)"/>
<path d="M75.85 432.68C77.15 433.73 74.84 436.1 74.96 439.35C75.11 443.51 81.23 453.25 85.4 454.02C89.32 454.74 90.67 453.21 90.96 453.13C91.64 452.94 92.66 453.47 93.63 452.69C95.88 457.82 99.56 462.33 101.63 467.58C101.3 468.99 86.97 471.91 82.96 468.47C81.87 467.53 69.11 446.3 68.74 443.58C67.54 434.83 74.63 433.6 75.85 432.69V432.68Z" fill="#21281C"/>
<path d="M72.5198 437.57C73.3898 446.59 81.7198 460.82 92.5198 455.35L98.9598 466.68L98.2898 467.35L86.2898 467.79C85.0298 467.46 72.5898 448.58 71.8498 446.23C70.9398 443.36 70.1798 439.91 72.5198 437.56V437.57Z" fill="#677232"/>
<path d="M227.85 194.91C228.23 195.75 229.59 198.69 229.63 198.91C229.91 200.59 229.43 203.24 229.63 205.13C229.4 206.74 228.42 207.91 228.3 209.57C226.83 209.69 224.93 212.59 223.86 213.13C222.71 213.71 219.34 214.41 218.08 214.46C215.67 213.48 213.5 212.31 211.86 210.24C211.93 209.8 212.97 210.15 213.19 210.02C214.08 212.48 216.7 213.04 218.97 213.13C220.76 213.2 221.16 212.69 222.53 211.8C227.14 208.76 227.78 202.83 226.97 197.58C226.84 196.7 225.96 195.13 226.08 194.02C226.15 194.09 227.61 194.83 227.86 194.91H227.85Z" fill="#ECF7F6"/>
<path d="M228.3 209.57C227.84 215.93 228.51 221.25 226.08 227.35C226.98 222.86 227.01 222.31 226.08 218.02C225.89 217.16 226.38 214.7 223.86 213.13C224.93 212.59 226.84 209.69 228.3 209.57Z" fill="#FCC9A4"/>
<path d="M139.85 458.02C140.57 461.03 139.91 467.56 143.18 469.13C144.9 469.96 153.37 471.1 153.62 467.8H156.73C158.54 471.41 163.12 481.19 161.17 484.91C158.65 489.72 133.05 485.62 133.17 472.02C133.2 468.67 135.32 463.72 135.84 460.24C137.39 459.35 136.01 456.67 139.84 458.02H139.85Z" fill="#21281C"/>
<path d="M146.52 472.24C141.1 482.56 156 481.27 155.85 485.13C151.74 485.41 143.82 482.69 140.52 480.24C133.21 474.81 135.71 469.19 138.3 461.57C139.3 468.32 138.86 471.52 146.52 472.24Z" fill="#9CC256"/>
<path d="M155.85 485.13C156 481.27 141.09 482.56 146.52 472.24C154.55 472.99 155.45 469.94 155.85 470.24C157.38 474.56 163.38 484.61 155.85 485.13Z" fill="#D4E050"/>
<path d="M155.85 161.57C153.46 161.2 151.17 160.9 148.74 161.13C142.52 154.99 138.91 153.28 145.18 162.02C142.93 162.55 138.44 164.39 136.51 165.58C126.24 171.9 142.51 164.41 146.07 163.8C148.64 169.97 154.61 173.46 158.96 178.02C161.03 180.19 160.64 180.14 160.74 180.24C153.94 176.8 144.09 177.1 137.41 180.68C132.01 183.58 133.14 187.68 130.3 182.46L131.63 189.13C130.09 188.25 129.37 187.99 128.3 186.46C126.94 184.54 125.98 180.85 126.08 178.46C128.22 167.5 134.3 158.34 139.41 148.68C139.5 148.68 139.55 147.56 140.97 147.79L155.86 161.57H155.85Z" fill="#BE7987"/>
<path d="M155.85 161.57C157.57 161.83 158.04 162.53 159.41 162.01C160.05 162.54 162.7 163.79 161.63 164.23C158.63 163.69 155.81 163.31 152.74 163.34C151.44 163.35 150.01 163.21 148.74 163.34C148.2 163.39 146.8 163.66 146.07 163.78C142.51 164.39 126.24 171.88 136.51 165.56C138.43 164.38 142.93 162.54 145.18 162C146.1 161.78 148.11 161.17 148.74 161.11C151.17 160.88 153.46 161.19 155.85 161.55V161.57Z" fill="#331C21"/>
<path d="M160.74 180.24C163.06 182.72 167.3 185.7 167.85 189.35C168.97 196.7 161.54 181.39 155.41 181.35C159.62 183.18 162.5 190.27 162.97 194.46C163.39 198.23 163.23 207.06 158.53 207.13C164.66 202.21 162.77 194.19 158.97 188.24C156.99 185.14 154.8 182.41 150.97 183.57C155.56 189.34 148.63 195.63 157.19 192.24C158.16 194.09 157.9 194.28 158.08 195.35C156.28 192.62 153.15 193.65 150.52 194.46C150.45 182.52 137.25 189.79 138.08 198.46C138.35 201.28 140.03 202.84 141.64 204.68C142.21 205.33 142.09 205.16 142.53 205.57C143.5 206.46 143.78 207.44 146.97 208.68L146.08 209.57C145.31 209.43 143.56 208.58 142.52 208.24C137.14 204.35 135.61 197.94 137.19 191.57C137.89 188.75 144.47 181.97 137.86 186.9C134.49 189.42 133.09 193.19 133.19 197.34C133.22 198.42 135.17 201.43 133.63 201.12C133.11 200.1 132.66 198.8 131.85 198.01C131.38 193.34 127.94 191.02 126.52 186.9C127.17 186.97 126.82 186.09 127.19 186.01C127.25 186 127.56 186.66 128.3 186.45C129.38 187.97 130.09 188.24 131.63 189.12L130.3 182.45C133.14 187.67 132.01 183.57 137.41 180.67C144.09 177.09 153.95 176.79 160.74 180.23V180.24Z" fill="#121313"/>
<path d="M125.63 182.02C125.76 183.73 125.96 185.29 126.52 186.91C127.95 191.03 131.39 193.35 131.85 198.02C131.13 205.38 129.85 212.83 130.96 220.24C128.17 216.36 133.77 214.73 123.4 215.35C122.44 206.11 122.58 191.2 124.73 182.24C124.81 181.91 125.32 182.01 125.62 182.02H125.63Z" fill="#DA9F83"/>
<path d="M194.08 178.46C199.7 179.45 205.15 180.9 210.97 180.24C211.66 180.42 213.3 181.37 213.86 182.02C219.22 180.92 225.27 182.8 230.08 180.24C233.53 181.8 233.02 181.96 233.19 182.02L231.41 191.35C230.53 189.73 229.29 189.67 229.19 189.57C226.54 187.08 223.16 184.9 219.41 185.13C219.12 182.68 213.2 184.22 207.63 183.8C195.81 182.91 188.36 180.09 177.63 175.8C175.28 173.43 185.19 176.91 194.07 178.47L194.08 178.46Z" fill="#CA8D96"/>
<path d="M223.85 213.13C226.37 214.7 225.89 217.16 226.07 218.02C220.45 238 197.53 217.41 212.74 213.58C214.65 214.7 215.96 214.56 218.07 214.47C219.33 214.42 222.7 213.71 223.85 213.14V213.13Z" fill="#F48991"/>
<path d="M219.41 185.13C223.16 184.91 226.54 187.08 229.19 189.57C221.97 186.81 226.55 190.13 228.3 192.9C229.22 194.35 229.01 196.67 230.97 197.12C230.82 197.48 231.39 198.93 229.64 198.9C229.6 198.68 228.25 195.74 227.86 194.9C226.99 193.01 225.25 190.41 223.64 189.12C219.95 186.17 222.06 188.63 222.08 189.56C222.13 191.84 220.94 199.47 224.08 198.45C225.97 197.84 221.89 194.2 226.97 197.56C227.78 202.81 227.14 208.75 222.53 211.78C223.51 210.52 225.3 207.79 225.64 206.45C226.4 203.41 226.62 197.52 222.08 198.89C219.96 200.11 222.22 191.27 219.64 190.89C218.69 190.75 219.3 193.82 219.42 194.89C213.13 190.48 209.37 197.24 209.64 203.33C209.96 210.57 213.38 210.48 217.64 205.55H218.08C216.22 208.42 216.02 208.34 213.19 209.99C212.97 210.12 211.92 209.77 211.86 210.21C213.5 212.29 215.67 213.45 218.08 214.43C215.96 214.52 214.65 214.66 212.75 213.54C204.95 208.95 208.06 185.78 219.42 185.1L219.41 185.13Z" fill="#121313"/>
<path d="M158.96 188.24C162.76 194.19 164.64 202.21 158.52 207.13C163.23 207.06 163.39 198.23 162.96 194.46C163.84 192.49 164.35 200.5 164.29 200.9C163.3 208.32 154.37 210.73 148.29 209.12C147.74 208.97 147.47 208.87 146.96 208.68C143.77 207.43 143.48 206.46 142.52 205.57C142.48 205.05 142.81 205.18 142.96 205.13C149.16 211.46 155.22 209.27 157.63 201.13C158.46 198.3 158.59 198.43 158.07 195.35C157.89 194.28 158.15 194.09 157.18 192.24C156.03 190.05 150.24 186.14 158.96 188.24Z" fill="#8CCFD6"/>
<path d="M142.52 208.24C137.64 206.61 135.99 205.79 133.63 201.13C135.16 201.44 133.21 198.43 133.19 197.35C133.08 193.2 134.48 189.42 137.86 186.91C144.48 181.97 137.89 188.76 137.19 191.58C135.61 197.94 137.14 204.35 142.52 208.25V208.24Z" fill="white"/>
<path d="M158.96 178.02C154.62 173.46 148.64 169.97 146.07 163.8C146.8 163.68 148.2 163.41 148.74 163.36L158.96 178.03V178.02Z" fill="#FCC9A4"/>
<path d="M152.74 163.35L152.96 164.68C161.3 168.07 169.27 172.45 177.63 175.79C188.36 180.08 195.81 182.9 207.63 183.79C213.19 184.21 219.12 182.68 219.41 185.12C208.05 185.8 204.94 208.98 212.74 213.56C197.53 217.39 220.45 237.99 226.07 218C227 222.29 226.97 222.85 226.07 227.33C225.77 228.09 224.49 230.15 225.18 230.89C220.82 241.45 188.73 247.73 178.07 247.33C175.64 247.24 173.34 246.78 170.96 246.44C179.35 244.42 165.77 243.45 153.63 239.33C143.38 235.86 132.79 232.36 130.96 220.22C129.85 212.81 131.13 205.35 131.85 198C132.66 198.79 133.11 200.09 133.63 201.11C135.99 205.77 137.64 206.6 142.52 208.22C143.56 208.57 145.31 209.41 146.08 209.55C146.86 209.69 148.39 209.68 148.3 209.11C154.38 210.72 163.31 208.31 164.3 200.89C164.35 200.49 163.85 192.47 162.97 194.45C162.5 190.26 159.63 183.17 155.41 181.34C161.54 181.38 168.97 196.69 167.85 189.34C167.29 185.69 163.05 182.71 160.74 180.23C160.64 180.13 161.03 180.18 158.96 178.01L148.74 163.34C150.01 163.21 151.44 163.35 152.74 163.34V163.35Z" fill="url(#paint4_linear_65_2333)"/>
<path d="M225.19 230.91C224.5 230.17 225.78 228.11 226.08 227.35C225.73 229.07 226.1 228.7 225.19 230.91Z" fill="#FCC9A4"/>
<path d="M193.63 226.91C186.64 229.56 174.78 226.6 168.3 222.91C163.65 214.79 169.35 224.72 183.19 226.02C190.35 226.69 201.18 224.05 193.63 226.91Z" fill="#331C21"/>
<path d="M196.3 208.68C195.19 213.04 192.07 214.12 187.86 214.01C183.02 210.53 189.89 211.73 191.19 211.34C193.1 210.77 193.89 203.88 196.3 208.67V208.68Z" fill="#ECB397"/>
<path d="M187.85 214.02C192.06 214.12 195.18 213.05 196.29 208.69C198.56 213.19 191.95 216.97 187.85 214.02Z" fill="#8B4E4C"/>
<path d="M148.3 209.13C148.38 209.7 146.86 209.72 146.08 209.57L146.97 208.68C147.48 208.88 147.75 208.98 148.3 209.12V209.13Z" fill="#2D121D"/>
<path d="M126.08 178.46C125.98 180.85 126.95 184.54 128.3 186.46C127.56 186.67 127.25 186 127.19 186.02C126.83 186.1 127.17 186.98 126.52 186.91C125.96 185.29 125.76 183.73 125.63 182.02C125.24 176.81 125.99 178.88 126.07 178.46H126.08Z" fill="#2D121D"/>
<path d="M220.74 205.57L218.96 213.13C216.69 213.04 214.07 212.48 213.18 210.02C216.01 208.36 216.21 208.44 218.07 205.58C218.1 205.53 218.46 205.47 218.96 204.69C219.51 204.79 220.64 205.55 220.74 205.58V205.57Z" fill="#5FC7CE"/>
<path d="M225.63 206.46C225.29 207.8 223.5 210.53 222.52 211.79C221.16 212.69 220.75 213.2 218.96 213.12L220.74 205.56C222.16 206.02 224.11 206.45 225.63 206.45V206.46Z" fill="#4EC1B6"/>
<path d="M226.08 194.02C225.96 195.13 226.83 196.7 226.97 197.58C221.89 194.22 225.97 197.86 224.08 198.47C220.94 199.49 222.13 191.86 222.08 189.58C223.98 190.58 224.66 192.62 226.08 194.02Z" fill="#2A3D5F"/>
<path d="M227.85 194.91C227.6 194.83 226.14 194.09 226.07 194.02C224.65 192.61 223.97 190.57 222.07 189.58C222.05 188.65 219.93 186.19 223.63 189.14C225.24 190.43 226.98 193.02 227.85 194.92V194.91Z" fill="#7EAA97"/>
<path d="M229.19 189.57C229.29 189.67 230.53 189.73 231.41 191.35C231.72 191.92 232.35 193.78 232.3 194.46C232.29 194.61 231.62 195.57 230.97 197.13C229.01 196.68 229.22 194.36 228.3 192.91C226.55 190.14 221.97 186.81 229.19 189.58V189.57Z" fill="#27352C"/>
<path d="M148.74 161.13C148.11 161.19 146.1 161.8 145.18 162.02C138.9 153.28 142.52 154.99 148.74 161.13Z" fill="#ECB397"/>
<path d="M150.52 194.46C150.53 196.74 149.27 197.64 149.19 199.79C148.84 199.81 148.73 200.09 148.3 200.23C147.91 200.36 147.77 200.64 147.41 200.67L138.08 198.45C137.25 189.78 150.46 182.51 150.52 194.45V194.46Z" fill="#1B6131"/>
<path d="M158.08 195.35C158.6 198.43 158.47 198.3 157.64 201.13C155.15 201.39 150.01 199.74 149.2 199.8C149.28 197.64 150.55 196.74 150.53 194.47C153.16 193.65 156.28 192.63 158.09 195.36L158.08 195.35Z" fill="#208B70"/>
<path d="M158.96 188.24C150.24 186.14 156.03 190.05 157.18 192.24C148.62 195.63 155.55 189.34 150.96 183.57C154.79 182.4 156.98 185.13 158.96 188.24Z" fill="#324B6B"/>
<path d="M147.41 200.68C146.13 202.59 143.87 204.08 141.63 204.68C140.02 202.83 138.34 201.28 138.07 198.46L147.4 200.68H147.41Z" fill="#249761"/>
<path d="M142.96 205.13C142.8 205.19 142.47 205.05 142.52 205.57C142.08 205.17 142.2 205.33 141.63 204.68C143.87 204.08 146.13 202.59 147.41 200.68C147.77 200.65 147.91 200.37 148.3 200.24C147.51 202.51 145.23 204.3 142.97 205.13H142.96Z" fill="#0B2E22"/>
<path d="M219.41 194.91C219.59 196.57 219.82 198.66 220.3 200.24C219.77 200.93 219.09 204.49 218.97 204.68C218.47 205.46 218.12 205.52 218.08 205.57H217.64L209.64 203.35C209.37 197.26 213.13 190.5 219.42 194.91H219.41Z" fill="#1B6131"/>
<path d="M225.63 206.46C224.11 206.46 222.17 206.04 220.74 205.57C220.65 205.54 219.51 204.79 218.96 204.68C219.09 204.48 219.76 200.93 220.29 200.24C220.36 200.15 221.96 198.94 222.07 198.91C226.6 197.54 226.39 203.43 225.63 206.47V206.46Z" fill="#208B70"/>
<path d="M217.63 205.57C213.37 210.49 209.95 210.59 209.63 203.35L217.63 205.57Z" fill="#249761"/>
<path d="M222.08 198.91C221.97 198.94 220.37 200.16 220.3 200.24C219.82 198.65 219.6 196.56 219.41 194.91C219.29 193.84 218.68 190.77 219.63 190.91C222.21 191.29 219.95 200.13 222.07 198.91H222.08Z" fill="#21281C"/>
<path d="M157.63 201.13C155.22 209.27 149.16 211.46 142.96 205.13C145.22 204.3 147.51 202.51 148.29 200.24C148.72 200.09 148.83 199.82 149.18 199.8C149.99 199.75 155.14 201.4 157.62 201.13H157.63Z" fill="#4EC1B6"/>
<defs>
<linearGradient id="paint0_linear_65_2333" x1="77.6499" y1="247" x2="56.1299" y2="250.3" gradientUnits="userSpaceOnUse">
<stop stop-color="#B2D1D8"/>
<stop offset="1" stop-color="#BBDBC1"/>
</linearGradient>
<linearGradient id="paint1_linear_65_2333" x1="108.22" y1="271.9" x2="87.8" y2="278.06" gradientUnits="userSpaceOnUse">
<stop stop-color="#A3D0DE"/>
<stop offset="1" stop-color="#ADD5B9"/>
</linearGradient>
<linearGradient id="paint2_linear_65_2333" x1="107.85" y1="65.18" x2="118.98" y2="79.61" gradientUnits="userSpaceOnUse">
<stop stop-color="#FFFEF6"/>
<stop offset="1" stop-color="#FEFBDF"/>
</linearGradient>
<linearGradient id="paint3_linear_65_2333" x1="110.51" y1="404.81" x2="85.53" y2="446.31" gradientUnits="userSpaceOnUse">
<stop stop-color="#BE7D6C"/>
<stop offset="1" stop-color="#DD9F83"/>
</linearGradient>
<linearGradient id="paint4_linear_65_2333" x1="208.86" y1="193.91" x2="134.56" y2="215.37" gradientUnits="userSpaceOnUse">
<stop stop-color="#FDCDAB"/>
<stop offset="1" stop-color="#FAB59B"/>
</linearGradient>
</defs>
</svg>
